<?xml version="1.0" encoding="utf-8"?>
<!-- Generator: Adobe Illustrator 24.1.1, SVG Export Plug-In . SVG Version: 6.00 Build 0)  -->
<svg version="1.1" id="_x3C_Layer_x3E_" xmlns="http://www.w3.org/2000/svg" xmlns:xlink="http://www.w3.org/1999/xlink" x="0px"
	 y="0px" viewBox="0 0 2848 1780" style="enable-background:new 0 0 2848 1780;" xml:space="preserve">
<style type="text/css">
	.st0{fill:#FFFFFF;}
	.st1{fill:#FCECDB;}
	.st2{fill:#233862;}
	.st3{fill:#FFB27D;}
	.st4{fill:#ED985F;}
	.st5{fill:#2C3A64;}
	.st6{fill:#B64C41;}
	.st7{fill:#739AF0;}
	.st8{fill:#AA413E;}
	.st9{fill:#2B478B;}
	.st10{fill:#B56F40;}
	.st11{fill:#99592E;}
	.st12{fill:#EE9849;}
	.st13{fill:#74ACBE;}
	.st14{fill:#578E9B;}
	.st15{fill:#E58638;}
	.st16{fill:#82B378;}
	.st17{fill:#27437C;}
	.st18{fill:#2F5196;}
	.st19{fill:#D9935C;}
	.st20{fill:#4A75CB;}
	.st21{fill:#CB7D45;}
	.st22{fill:#FFA412;}
	.st23{fill:#163560;}
	.st24{fill:#5FABB7;}
	.st25{fill:#EF9E67;}
	.st26{fill:#A53D38;}
	.st27{fill:#C45446;}
	.st28{fill:#912F2F;}
	.st29{fill:#BC3F3F;}
	.st30{fill:#4A82D3;}
	.st31{fill:#E8945B;}
	.st32{fill:#1F396D;}
	.st33{fill:#C65447;}
	.st34{fill:#B2443B;}
	.st35{fill:#35488B;}
	.st36{fill:#F99746;}
	.st37{fill:#ED7D2B;}
	.st38{fill:#F1A34F;}
	.st39{fill:#D86713;}
	.st40{fill:#466AA5;}
	.st41{fill:#F4A671;}
	.st42{fill:#E2AF64;}
	.st43{fill:#EDBD77;}
	.st44{fill:#FFCF83;}
	.st45{fill:#FFF2E9;}
	.st46{fill:#0F2949;}
	.st47{fill:#C8D9E8;}
	.st48{fill:#2E3552;}
</style>
<rect class="st0" width="2848" height="1780"/>
<g>
	<path class="st1" d="M2663.33,1398.36H229.04c0,0-2.11-20.11-2.73-52.57c-0.36-18.91-0.22-42.02,1.14-67.8
		c0.12-2.11,0.23-4.24,0.36-6.39c0.71-11.82,1.67-24.16,2.96-36.89c0.12-1.13,0.23-2.25,0.36-3.39c1.4-13.3,3.15-27.13,5.34-41.32
		c1.78-11.55,3.82-23.35,6.21-35.34c0.16-0.84,0.34-1.69,0.51-2.53c1.23-6.1,2.56-12.25,3.97-18.44c0.55-2.43,1.12-4.86,1.7-7.3
		c1.14-4.77,2.32-9.55,3.57-14.34c3.03-11.73,6.41-23.56,10.15-35.42c0.38-1.2,0.77-2.43,1.14-3.65c1.71-5.29,3.48-10.59,5.34-15.89
		c2.82-8.07,5.83-16.15,9.03-24.2c2-5.06,4.09-10.1,6.24-15.14c67.18-157.11,209.39-303.28,506.36-300.34
		c638.05,6.33,589.08-339.85,1035.72-362.01c181.9-9.03,292.8,154.33,260.09,387.7C2031.17,1137.89,2655.23,851.7,2663.33,1398.36z"
		/>
	<g>
		<path class="st2" d="M1977.46,1394.66c0,0,0-11.5,1.64-15.32c1.64-3.82,7.65-19.39,7.65-19.39h23.48c0,0,4.37,14.2,4.64,18.84
			c0.27,4.64,0,15.87,0,15.87H1977.46z"/>
		<path class="st2" d="M2126.57,1394.66c0,0,0-11.5-1.64-15.32c-1.64-3.82-7.65-19.39-7.65-19.39h-23.48c0,0-4.37,14.2-4.64,18.84
			c-0.27,4.64,0,15.87,0,15.87H2126.57z"/>
		<path class="st3" d="M2032.49,749.38c0,0-0.83,25.6-4.1,37.07l-25.93,18.09l97.62,14.61l-23.28-32.17c0,0-7.03-34.32-3.34-47.02
			C2077.13,727.27,2032.49,749.38,2032.49,749.38z"/>
		<path class="st4" d="M2032.35,752.92c0-0.01,7.72,18.58,22.26,18.17c14.54-0.41,17.85-16.85,17.85-16.85L2032.35,752.92z"/>
		<path class="st5" d="M2023.67,737.87c0,0-4.7-23.44-7.97-30.54c-3.28-7.1-6.01-38.78,30.31-40.41c0,0,13.93,1.64,21.57-3
			c0,0,0,4.64-1.91,6.28c0,0,12.56-3,22.39,7.92c9.83,10.92-6.55,49.15-5.73,58.16L2023.67,737.87z"/>
		<path class="st3" d="M2052.94,763.91c-10.54-0.19-29.93-14.21-29.93-31.59v-27.11c0-6.34,4.42-11.54,9.83-11.54h40.2
			c5.41,0,9.83,5.19,9.83,11.54v25.58C2082.87,749.01,2065.02,764.13,2052.94,763.91z"/>
		<path class="st5" d="M2023.01,719.69c0,0,0.05-16.29,12.96-18.79s41.78,7.94,45.88-3.94c4.1-11.88-55.82-11.67-58.83-4.1
			C2020,700.44,2023.01,719.69,2023.01,719.69z"/>
		<path class="st6" d="M1980.41,996.52c0,0,4.11,125.46-2.04,197.05c-6.14,71.59,0.04,171.21,0.04,171.21s19.65,10.83,40.95,0
			c0,0,23.36-138.3,23.21-171.21c-0.16-35.05,25.42-191.58,25.42-191.58L1980.41,996.52z"/>
		<path class="st6" d="M2125.72,1364.78c0,0-19.64,10.84-40.94,0c0,0-23.36-138.3-23.21-171.21c0.07-14.8-4.46-51.28-9.71-88.47
			c-7.18-50.88-15.72-103.1-15.72-103.1l90.99-5.68c0,0-7.5,125.68-1.36,197.26C2131.91,1265.16,2125.72,1364.78,2125.72,1364.78z"
			/>
		<path class="st7" d="M2126.04,1017.39c0,0-38.79,7.51-74.18,7.51c-15.43,0-32.2-1.69-45.55-3.48
			c-14.76-1.96-25.35-4.03-25.35-4.03s-7.86,0.69-3.22-38.09c3.53-29.51,2.43-56.15,1.64-83.56c-0.09-3.05-0.02-6.65,0.16-10.67
			c1.51-31.96,11.17-89.49,18.54-92.58c0,0,10.95-4.07,30.3-6.05c0,0.38,11.23,16.79,24.56,18.64c8.28-3.28,14.79-6.07,23.85-18.1
			c11.48,1.33,23.99,3.61,37.38,7.21c0,0,1.39,6.1,6.65,111.84C2122.91,947.92,2137.21,1017.53,2126.04,1017.39z"/>
		<path class="st8" d="M2061.57,1193.57c0.07-14.8-4.46-51.28-9.71-88.47c5.45-22.22,18.72-43.6,18.72-43.6
			C2087.37,1108.6,2061.57,1193.57,2061.57,1193.57z"/>
		<path class="st9" d="M1943.53,918.38c-0.93,0.77,2.3,8.76,7.05,19.18c9.78,21.41,26.03,53.02,26.03,53.02
			c-2.35,8.92-4.93,14.43-4.93,14.43c-27.33-21.47-44.95-39.74-56.2-53.75c-15.81-19.7-19.05-31-19.05-31
			c60.85-123.86,103.67-128.43,103.67-128.43l-5.06,81.86C1995.04,873.7,1946.35,916.03,1943.53,918.38z"/>
		<path class="st9" d="M2136.92,1049.77c-9.07,18.15-43.27,17.5-43.27,17.5c-6.28-48.23-7.67-279.04-7.67-279.04
			c11.57,1.39,26.95,5.54,26.95,5.54c11.11,21.48,15.04,61.71,16.01,90.06c0.53,15.87,0.14,28.02-0.44,31.07
			c-0.87,4.53,0.23,26.1,1.9,50.71C2132.97,1003.99,2136.92,1049.77,2136.92,1049.77z"/>
		<path class="st9" d="M2019.39,787.6c0,0-2.29,231.44-8.57,279.67c0,0-34.2,0.66-43.27-17.49c0,0,14.05-142.43,11.83-154.02
			c-1.54-8.08,2.46-74.46,17.25-102.99C1996.63,792.76,2009.57,788.75,2019.39,787.6z"/>
		<path class="st3" d="M1973.37,992.14c0,0,14.75-13.65,20.75-6.01c6.01,7.65,7.1,19.66,2.46,18.84c-4.64-0.82-14.2-5.19-15.56-3
			c-1.37,2.18-7.48,6.36-9.34,3.04C1969.82,1001.7,1973.37,992.14,1973.37,992.14z"/>
		<path class="st3" d="M1976.61,990.58c-2.35,8.92-4.93,14.43-4.93,14.43c-27.33-21.47-44.95-39.74-56.2-53.75
			c8.48-0.63,20.86-3.66,35.1-13.71C1960.37,958.97,1976.61,990.58,1976.61,990.58z"/>
		<path class="st9" d="M2211.63,920.27c0,0-3.24,11.3-19.05,31c-11.25,14.01-28.87,32.28-56.2,53.75c0,0-2.58-5.51-4.93-14.43
			c0,0,16.24-31.61,26.03-53.02c4.75-10.42,7.98-18.41,7.05-19.18c-2.19-1.82-31.93-27.66-45.2-39.19
			c-3.85-3.35-6.31-5.49-6.31-5.49l-3.04-80.64C2109.97,793.06,2150.78,796.41,2211.63,920.27z"/>
		<path class="st3" d="M2134.68,992.14c0,0-14.75-13.65-20.75-6.01c-6.01,7.65-7.1,19.66-2.46,18.84c4.64-0.82,14.2-5.19,15.57-3
			c1.37,2.18,7.48,6.36,9.34,3.04C2138.23,1001.7,2134.68,992.14,2134.68,992.14z"/>
		<path class="st3" d="M2131.44,990.58c2.35,8.92,4.93,14.43,4.93,14.43c27.33-21.47,44.95-39.74,56.2-53.75
			c-8.48-0.63-20.86-3.66-35.1-13.71C2147.69,958.97,2131.44,990.58,2131.44,990.58z"/>
		<path class="st2" d="M2164.52,918.38c-2.19-1.82-31.93-27.66-45.2-39.19c0,0,13.25-9.93,21.44,4.55
			C2148.95,898.21,2164.52,918.38,2164.52,918.38z"/>
		<path class="st2" d="M2211.63,920.27c0,0-3.24,11.3-19.05,31C2174.27,951.01,2211.63,920.27,2211.63,920.27z"/>
		<g>
			<g>
				<path class="st6" d="M2039.29,731.11c-3.85,0-11.55-0.85-12.9-7.54c-0.41-2.02-0.03-3.83,1.1-5.21c1.25-1.52,3.3-2.39,5.63-2.39
					h11.83c2.25,0,3.82,0.65,4.67,1.92c1.43,2.15,0.33,5.37-0.21,6.66c-1.84,4.4-4.38,6.46-7.98,6.46
					C2041.3,731.03,2040.48,731.11,2039.29,731.11z M2033.13,716.75c-2.1,0-3.93,0.77-5.03,2.11c-0.98,1.2-1.3,2.77-0.94,4.56
					c0.69,3.43,3.27,5.63,7.66,6.52c3.34,0.68,6.53,0.31,6.56,0.31l0.05,0c3.26,0,5.57-1.9,7.28-5.99c0.38-0.91,1.53-4.04,0.27-5.93
					c-0.7-1.05-2.05-1.58-4.02-1.58H2033.13z"/>
			</g>
			<g>
				<path class="st6" d="M2066.59,731.11c-1.19,0-2.01-0.08-2.16-0.1c-3.6-0.01-6.14-2.06-7.98-6.46c-0.54-1.29-1.64-4.51-0.21-6.66
					c0.85-1.28,2.42-1.92,4.67-1.92h11.83c2.33,0,4.39,0.87,5.63,2.39c1.13,1.38,1.51,3.18,1.1,5.21
					C2078.14,730.26,2070.44,731.11,2066.59,731.11z M2060.91,716.75c-1.97,0-3.33,0.53-4.02,1.58c-1.26,1.89-0.11,5.01,0.27,5.93
					c1.71,4.08,4.02,5.99,7.28,5.99l0.05,0c0.03,0,3.22,0.37,6.57-0.31c4.39-0.89,6.97-3.09,7.66-6.52
					c0.36-1.79,0.04-3.37-0.94-4.56c-1.1-1.34-2.93-2.11-5.03-2.11H2060.91z"/>
			</g>
			<g>
				<path class="st6" d="M2048.7,721.44c-0.18,0-0.34-0.1-0.42-0.27c-0.11-0.23,0-0.51,0.23-0.62c0.2-0.09,4.83-2.17,8.95,0.01
					c0.23,0.12,0.31,0.4,0.19,0.63c-0.12,0.23-0.4,0.31-0.63,0.19c-3.71-1.97-8.08-0.01-8.13,0.01
					C2048.83,721.43,2048.77,721.44,2048.7,721.44z"/>
			</g>
		</g>
		<path class="st2" d="M2130.38,965.59c-19.38-54.64-11.06-86.41-11.06-86.41l9.6,4.63c0.53,15.87,0.14,28.02-0.44,31.07
			C2127.62,919.41,2128.71,940.98,2130.38,965.59z"/>
	</g>
	<g>
		<path class="st5" d="M1214.67,732.33c0,0-22.86-41.46-1.89-59.77c20.96-18.31,57.88-7.38,64.67,0
			c6.79,7.38,15.84,28.38-2.92,58.23L1214.67,732.33z"/>
		<path class="st2" d="M1169.12,1394.66c0,0,0-11.5,1.64-15.32c1.64-3.82,7.65-19.39,7.65-19.39h23.48c0,0,4.37,14.2,4.64,18.84
			c0.27,4.64,0,15.87,0,15.87H1169.12z"/>
		<path class="st2" d="M1318.23,1394.66c0,0,0-11.5-1.64-15.32c-1.64-3.82-7.65-19.39-7.65-19.39h-23.48c0,0-4.37,14.2-4.64,18.84
			c-0.27,4.64,0,15.87,0,15.87H1318.23z"/>
		<path class="st10" d="M1224.14,749.38c0,0-0.83,25.6-4.1,37.07l-25.93,18.09l97.62,14.61l-23.28-32.17c0,0-7.03-34.32-3.34-47.02
			C1268.79,727.27,1224.14,749.38,1224.14,749.38z"/>
		<path class="st11" d="M1224,752.92c0-0.01,7.72,18.58,22.26,18.17c14.54-0.41,17.85-16.85,17.85-16.85L1224,752.92z"/>
		<path class="st10" d="M1264.7,693.68h-40.2c-5.41,0-9.83,5.19-9.83,11.53v27.11c0,17.37,19.39,31.4,29.93,31.59
			c12.08,0.21,29.93-14.91,29.93-33.12v-25.58C1274.53,698.87,1270.1,693.68,1264.7,693.68z"/>
		<path class="st12" d="M1172.07,996.52c0,0,4.11,125.46-2.03,197.05c-6.14,71.59,0.04,171.21,0.04,171.21s19.65,10.83,40.95,0
			c0,0,23.36-138.3,23.21-171.21c-0.16-35.05,25.42-191.58,25.42-191.58L1172.07,996.52z"/>
		<path class="st12" d="M1317.38,1364.78c0,0-19.64,10.84-40.94,0c0,0-23.36-138.3-23.21-171.21c0.07-14.8-4.46-51.28-9.71-88.47
			c-7.18-50.88-15.72-103.1-15.72-103.1l90.99-5.68c0,0-7.5,125.68-1.36,197.26C1323.57,1265.16,1317.38,1364.78,1317.38,1364.78z"
			/>
		<path class="st13" d="M1301.63,793.06l0,0.05c-11.81-2.97-22.92-4.93-33.19-6.12c-9.06,12.03-15.56,14.83-23.85,18.1
			c-13.33-1.84-24.56-18.26-24.56-18.64c-14.52,1.49-24.31,4.15-28.29,5.39c-0.79,0.09-43.38,5.72-103.66,128.42
			c0,0,3.24,11.3,19.05,31c11.25,14.01,28.87,32.28,56.2,53.75c0,0,2.58-5.51,4.93-14.44c0,0-16.24-31.61-26.03-53.02
			c-4.75-10.42-7.98-18.41-7.05-19.18c1.76-1.46,21.41-18.52,35.92-31.13c-0.12,3.15-0.15,6.02-0.07,8.5
			c0.79,27.41,1.89,54.05-1.64,83.56c-4.64,38.77,3.22,38.09,3.22,38.09s10.58,2.07,25.35,4.03c13.35,1.79,30.12,3.48,45.55,3.48
			c35.39,0,74.18-7.51,74.18-7.51c11.17,0.14-3.13-69.48-5.22-111.36c-0.48-9.73-0.93-18.6-1.35-26.72
			c13.34,11.58,42.88,37.25,45.06,39.06c0.93,0.77-2.3,8.76-7.05,19.18c-9.78,21.41-26.03,53.02-26.03,53.02
			c2.35,8.92,4.93,14.44,4.93,14.44c27.33-21.47,44.95-39.74,56.2-53.75c15.81-19.7,19.05-31,19.05-31
			C1342.44,796.41,1301.63,793.06,1301.63,793.06z"/>
		<path class="st14" d="M1197.96,1021.42c-14.76-1.96-25.35-4.03-25.35-4.03s-7.86,0.69-3.22-38.09
			c3.53-29.51,2.42-56.15,1.64-83.56c-0.09-3.05-0.03-6.65,0.16-10.67c2.26,3.62,27.46,44.32,34.24,74.56
			C1210.38,981.71,1202.94,1007.69,1197.96,1021.42z"/>
		<path class="st15" d="M1253.23,1193.57c0.07-14.8-4.46-51.28-9.71-88.47c5.45-22.22,18.72-43.6,18.72-43.6
			C1279.03,1108.6,1253.23,1193.57,1253.23,1193.57z"/>
		<path class="st10" d="M1165.03,992.14c0,0,14.75-13.65,20.75-6.01c6.01,7.65,7.1,19.66,2.46,18.84c-4.64-0.82-14.2-5.19-15.57-3
			c-1.37,2.18-7.48,6.36-9.34,3.04C1161.48,1001.7,1165.03,992.14,1165.03,992.14z"/>
		<path class="st10" d="M1168.27,990.58c-2.35,8.92-4.93,14.43-4.93,14.43c-27.33-21.47-44.95-39.74-56.2-53.75
			c8.48-0.63,20.86-3.66,35.1-13.71C1152.02,958.97,1168.27,990.58,1168.27,990.58z"/>
		<path class="st10" d="M1326.34,992.14c0,0-14.75-13.65-20.75-6.01c-6.01,7.65-7.1,19.66-2.46,18.84c4.64-0.82,14.2-5.19,15.56-3
			c1.37,2.18,7.48,6.36,9.34,3.04C1329.89,1001.7,1326.34,992.14,1326.34,992.14z"/>
		<path class="st10" d="M1323.1,990.58c2.35,8.92,4.93,14.43,4.93,14.43c27.33-21.47,44.95-39.74,56.2-53.75
			c-8.48-0.63-20.86-3.66-35.1-13.71C1339.34,958.97,1323.1,990.58,1323.1,990.58z"/>
		<path class="st14" d="M1356.18,918.38c-2.19-1.82-31.93-27.66-45.2-39.19c0,0,13.25-9.93,21.44,4.55
			C1340.61,898.21,1356.18,918.38,1356.18,918.38z"/>
		<path class="st14" d="M1403.29,920.27c0,0-3.24,11.3-19.05,31C1365.93,951.01,1403.29,920.27,1403.29,920.27z"/>
		<path class="st5" d="M1214.67,716.21c0,0,7.31-22.32,31.27-18.84c23.96,3.48,26.04,8.6,28.58,14.54
			c2.55,5.94,7.46-21.71,7.46-21.71l-28.26-8.4c0,0-34.2,3.89-36.66,9.63c-2.46,5.73-2.46,5.73-2.46,5.73L1214.67,716.21z"/>
		<path class="st5" d="M1242.64,673.02c0,0-25.32-23.01-14.46-27.93S1242.64,673.02,1242.64,673.02z"/>
		<path class="st5" d="M1241.62,673.63c0,0-32.02-12.06-23.73-20.64C1226.17,644.42,1241.62,673.63,1241.62,673.63z"/>
		<path class="st5" d="M1243.71,674.29c0,0-5.24-29.68,7.42-29.46C1263.78,645.05,1243.71,674.29,1243.71,674.29z"/>
		<path class="st5" d="M1245.49,672.36c0,0,13.71-31.93,26.48-28.94S1245.49,672.36,1245.49,672.36z"/>
		<path class="st5" d="M1244.79,674.29c0,0,21.83-27.04,33.31-20.71C1289.58,659.91,1244.79,674.29,1244.79,674.29z"/>
	</g>
	<path class="st16" d="M2618.58,1393.44h-83.98c-4.5-3.82,3.11-12.49,11.07-13.07c3.46-0.26,7.83,0.46,12.82,1.52
		c1.16-15.35,7.75-84.35,32.63-81.58c27.97,3.1,0,30.39-7.91,46.54c-5.86,11.96-12.03,29.12-14.86,37.22
		c2.27,0.49,4.62,0.97,7.02,1.42c3.71-11.38,17.5-49.66,35.04-47.43c20.59,2.61,12.31,17.96-2.28,27.07
		c-10.71,6.7-23.86,16.22-30.1,20.82c5.29,0.86,10.82,1.45,16.42,1.32C2608.84,1386.92,2615.86,1391.16,2618.58,1393.44z"/>
	<path class="st16" d="M326.67,1388.84c-5.14-8.07-20.6-29.02-41.2-26.25c-22.44,3.02,24.78,17.82,39.24,26.31
		c-3.21,0.04-5.97-0.21-8-0.94c-9.67-3.45-26.22,3.16-31.51,5.48h92.02c-0.64-2.2-2.29-5.8-6.58-8.42
		c-1.51-0.92-4.55-1.05-8.47-0.75c5.47-6.45,9.27-27.05-5.96-21.75c-11.13,3.87-11.1,16.46-10,23.91c-2.37,0.37-4.77,0.75-7.14,1.09
		c-4.58-23.35-20.79-91.78-53.63-93.6c-33.3-1.85,28.23,70.97,48.72,94.26C331.54,1388.49,329.01,1388.73,326.67,1388.84z"/>
	<g>
		<path class="st2" d="M1009.41,1394.66c0,0,0-11.5,1.64-15.32c1.64-3.82,7.65-19.39,7.65-19.39h23.48c0,0,4.37,14.2,4.64,18.84
			c0.27,4.64,0,15.87,0,15.87H1009.41z"/>
		<path class="st2" d="M1158.52,1394.66c0,0,0-11.5-1.64-15.32c-1.64-3.82-7.65-19.39-7.65-19.39h-23.48c0,0-4.37,14.2-4.64,18.84
			c-0.27,4.64,0,15.87,0,15.87H1158.52z"/>
		<path class="st3" d="M1064.44,749.38c0,0-0.83,25.6-4.11,37.07l-25.93,18.09l97.62,14.61l-23.28-32.17c0,0-7.03-34.32-3.34-47.02
			C1109.08,727.27,1064.44,749.38,1064.44,749.38z"/>
		<path class="st4" d="M1064.3,752.92c0-0.01,7.72,18.58,22.26,18.17c14.54-0.41,17.85-16.85,17.85-16.85L1064.3,752.92z"/>
		<path class="st6" d="M1055.62,737.87c0,0-4.7-23.44-7.97-30.54c-3.28-7.1-6.01-38.78,30.31-40.41c0,0,13.93,1.64,21.57-3
			c0,0,0,4.64-1.91,6.28c0,0,12.56-3,22.39,7.92c9.83,10.92-6.55,49.15-5.73,58.16L1055.62,737.87z"/>
		<path class="st3" d="M1104.99,693.68h-40.2c-5.41,0-9.83,5.19-9.83,11.53v27.11c0,17.37,19.39,31.4,29.93,31.59
			c12.08,0.21,29.93-14.91,29.93-33.12v-25.58C1114.82,698.87,1110.39,693.68,1104.99,693.68z"/>
		<path class="st6" d="M1054.96,719.69c0,0,0.06-16.29,12.96-18.79c12.9-2.5,41.78,7.94,45.88-3.94c4.1-11.88-55.82-11.67-58.83-4.1
			C1051.94,700.44,1054.96,719.69,1054.96,719.69z"/>
		<path class="st9" d="M1012.36,996.52c0,0,4.11,125.46-2.03,197.05c-6.14,71.59,0.04,171.21,0.04,171.21s19.65,10.83,40.95,0
			c0,0,23.36-138.3,23.21-171.21c-0.16-35.05,25.42-191.58,25.42-191.58L1012.36,996.52z"/>
		<path class="st9" d="M1157.67,1364.78c0,0-19.64,10.84-40.94,0c0,0-23.35-138.3-23.21-171.21c0.07-14.8-4.46-51.28-9.71-88.47
			c-7.18-50.88-15.72-103.1-15.72-103.1l90.99-5.68c0,0-7.5,125.68-1.36,197.26C1163.86,1265.16,1157.67,1364.78,1157.67,1364.78z"
			/>
		<path class="st17" d="M1038.26,1021.42c-14.76-1.96-25.35-4.03-25.35-4.03s-7.86,0.69-3.22-38.09
			c3.53-29.51,2.42-56.15,1.64-83.56c-0.09-3.05-0.02-6.65,0.17-10.67c2.26,3.62,27.46,44.32,34.24,74.56
			C1050.67,981.71,1043.23,1007.69,1038.26,1021.42z"/>
		<path class="st18" d="M1141.92,793.06l0,0.05c-11.81-2.97-22.92-4.93-33.19-6.12c-9.06,12.03-15.56,14.83-23.85,18.1
			c-13.33-1.84-24.56-18.26-24.56-18.64c-14.52,1.49-24.31,4.15-28.29,5.39c-0.79,0.09-43.38,5.72-103.66,128.42
			c0,0,3.24,11.3,19.05,31c11.25,14.01,28.87,32.28,56.2,53.75c0,0,2.58-5.51,4.93-14.44c0,0-16.25-31.61-26.03-53.02
			c-4.75-10.42-7.98-18.41-7.05-19.18c1.76-1.46,21.41-18.52,35.92-31.13c-0.12,3.15-0.15,6.02-0.08,8.5
			c0.79,27.41,1.89,54.05-1.64,83.56c-4.64,38.77,3.22,38.09,3.22,38.09s10.58,2.07,25.35,4.03c13.35,1.79,30.12,3.48,45.56,3.48
			c35.39,0,74.18-7.51,74.18-7.51c11.17,0.14-3.13-69.48-5.22-111.36c-0.48-9.73-0.93-18.6-1.36-26.72
			c13.34,11.58,42.88,37.25,45.06,39.06c0.92,0.77-2.3,8.76-7.05,19.18c-9.78,21.41-26.03,53.02-26.03,53.02
			c2.35,8.92,4.93,14.44,4.93,14.44c27.33-21.47,44.95-39.74,56.2-53.75c15.81-19.7,19.05-31,19.05-31
			C1182.73,796.41,1141.92,793.06,1141.92,793.06z"/>
		<path class="st2" d="M1093.52,1193.57c0.07-14.8-4.46-51.28-9.71-88.47c5.45-22.22,18.72-43.6,18.72-43.6
			C1119.32,1108.6,1093.52,1193.57,1093.52,1193.57z"/>
		<path class="st3" d="M1005.32,992.14c0,0,14.75-13.65,20.75-6.01c6.01,7.65,7.1,19.66,2.46,18.84c-4.64-0.82-14.2-5.19-15.57-3
			c-1.36,2.18-7.48,6.36-9.34,3.04C1001.77,1001.7,1005.32,992.14,1005.32,992.14z"/>
		<path class="st3" d="M1008.56,990.58c-2.35,8.92-4.93,14.43-4.93,14.43c-27.33-21.47-44.95-39.74-56.2-53.75
			c8.48-0.63,20.86-3.66,35.1-13.71C992.32,958.97,1008.56,990.58,1008.56,990.58z"/>
		<path class="st3" d="M1166.63,992.14c0,0-14.75-13.65-20.75-6.01c-6.01,7.65-7.1,19.66-2.46,18.84c4.64-0.82,14.2-5.19,15.56-3
			c1.37,2.18,7.48,6.36,9.34,3.04C1170.18,1001.7,1166.63,992.14,1166.63,992.14z"/>
		<path class="st3" d="M1163.39,990.58c2.35,8.92,4.93,14.43,4.93,14.43c27.33-21.47,44.95-39.74,56.2-53.75
			c-8.48-0.63-20.86-3.66-35.1-13.71C1179.64,958.97,1163.39,990.58,1163.39,990.58z"/>
		<path class="st9" d="M1196.47,918.38c-2.19-1.82-31.93-27.66-45.2-39.19c0,0,13.25-9.93,21.44,4.55
			C1180.9,898.21,1196.47,918.38,1196.47,918.38z"/>
		<path class="st9" d="M1243.58,920.27c0,0-3.25,11.3-19.05,31C1206.22,951.01,1243.58,920.27,1243.58,920.27z"/>
		<path class="st12" d="M1061.69,780.21c0,0-4.33,1.81-5.56,6.72c0,0,17.39,17.89,28.76,18.16L1061.69,780.21z"/>
		<path class="st12" d="M1084.89,805.09l22.44-25.78c0,0,4.63,3.05,4.57,8.07C1111.9,787.38,1094.54,805.77,1084.89,805.09z"/>
		<path class="st12" d="M1080.85,803.19c0,0-17.13,147.87-11.16,165.89c3.07,9.28,7.18,17.3,10.45,22.91
			c2.35,4.03,8.18,4.02,10.51-0.02c4.55-7.9,10.49-19.32,10.49-25.12c0-9.39-13-163.78-13-163.78L1080.85,803.19z"/>
		<path class="st15" d="M1076.36,795.94c0,0,10.35-1.04,16.66-0.4c1.25,0.13,1.95,1.5,1.33,2.59c-1.77,3.18-5.37,8.69-9.14,8.69
			C1079.92,806.83,1071.67,796.31,1076.36,795.94z"/>
	</g>
	<g>
		<path class="st2" d="M1729.24,730.02c0,0-9.62-27.33-10.13-34.43c-0.51-7.1,2.68-27.58,26.34-29.76
			c23.66-2.18,32.47-4.71,32.47-4.71l-4.51,5.32c0,0,6.58-2.05,13.43,2.46c6.85,4.5,10.33,17.82,9.3,29.29
			c-1.02,11.47-9.98,24.09-10.11,28.84C1785.91,731.77,1729.24,730.02,1729.24,730.02z"/>
		<path class="st19" d="M1664.72,1013.59c0,0-0.54,6.25-7.06,19.82c0,0-2.99,9.23,16.56,23.08c19.55,13.85,0.54-42.9,0.54-42.9
			H1664.72z"/>
		<path class="st19" d="M1733.71,772.39c0,0-10.96,58.7-22.93,120.02c-13,66.65-27.17,136.4-29.71,137.25
			c-4.89,1.63-12.36-4.75-15.62-12.9c-2.62-6.55-7.11-60.4-4.05-95.2c0.74-8.49,1.61-15.47,2.57-19.78
			c4.89-21.99,6.37-99.8,21.03-112.01S1733.71,772.39,1733.71,772.39z"/>
		<path class="st7" d="M1733.71,772.39c0,0-6.32,33.83-14.6,76.95c-2.62,13.69-5.45,28.3-8.33,43.07
			c-11.72,22.97-21.78,38.59-24.88,35.65c-6.34-5.98-17.46-6.72-24.51-6.5c0.74-8.49,1.61-15.47,2.57-19.78
			c0.39-1.74,0.75-3.82,1.1-6.2c4.1-27.67,6.42-94.57,19.93-105.82C1699.65,777.55,1733.71,772.39,1733.71,772.39z"/>
		<path class="st20" d="M1719.11,849.34c-2.62,13.69-5.45,28.3-8.33,43.07c-11.72,22.97-21.78,38.59-24.88,35.65
			c-6.34-5.98-17.46-6.72-24.51-6.5c0.74-8.49,1.61-15.47,2.57-19.78c0.39-1.74,0.75-3.82,1.1-6.2l35.14-84.82L1719.11,849.34z"/>
		<path class="st19" d="M1782.34,771.53c0.26-11.84,0.06-25.98-1.54-37.92l-47.26,7.72c0,0,0,14.42,0.21,30.42
			c-0.03,0-0.05,0.01-0.05,0.01s-1.29,14.84,16.99,17.02C1768.98,790.95,1782.83,782.98,1782.34,771.53z"/>
		<path class="st21" d="M1733.41,744.25c0,0,11.13,22.81,23.89,22.81s24.71-21.45,24.71-21.45L1733.41,744.25z"/>
		<path class="st2" d="M1764.91,1397.98c0,0,1.72-13.4,5.7-21.36c3.98-7.96,29.32-2.9,29.32-2.9s5.07,4.34,6.15,24.62
			L1764.91,1397.98z"/>
		<path class="st2" d="M1678.57,1397.8c5.96-3.63,2.57-30.75,2.57-30.75s-27.75-22.2-31.56-5.2c-3.81,17-26.36,24.63-39.19,26.71
			c-8.86,1.44-11.6,6.34-12.45,9.25H1678.57z"/>
		<path class="st19" d="M1734.95,745.93c4.59,3.61,18.06,7.2,21.95,7.62c0,0,19.96-4.45,23.59-6.64c5.62-3.41,5.26-10.3,5.55-19.89
			c0.35-11.35,1.49-20.26,0.22-26.8c-1.51-7.83-6.47-12.28-20.36-13.49c-25.5-2.21-36.13,4.17-36.57,12.72
			c-0.11,2.3-0.22,4.48-0.29,6.56C1728.01,732.68,1730.12,742.13,1734.95,745.93z"/>
		<path class="st9" d="M1736.04,1196.31c-1.13,6.22-1.85,11.33-2.04,14.99c-2.58,50.31-42.35,165.35-49.47,168.04
			c-11.01,4.15-28.34-4.68-37.41-7.57c-3.76-1.2-6.29-4.99-5.46-8.83c19.7-90.55,26.93-220.93,29.57-298.13
			c1.33-38.88,8-65.74,8-65.74s97-25.88,97.58,6.86C1777.33,1034.9,1744.69,1148.52,1736.04,1196.31z"/>
		<path class="st2" d="M1736.04,1196.31l-64.8-131.5c1.33-38.88,8-65.74,8-65.74s97-25.88,97.58,6.86
			C1777.33,1034.9,1744.69,1148.52,1736.04,1196.31z"/>
		<path class="st9" d="M1714.46,1006.04l51.28,371.67c0,0,22.52,5.43,40.04,1.09c0,0,15.01-197.67,13.76-245.46
			s10.78-127.87-2.74-136.7C1803.27,987.8,1714.46,1006.04,1714.46,1006.04z"/>
		<path class="st22" d="M1824.16,996.63c0.17,4.31-3.24,7.9-7.54,7.96l-80.81,1.23l-59.36,0.91c-2.78,0.05,6.01-22.19,6.19-167.18
			c0.04-32.36,50.13-67.17,51.06-67.17l0.01,0.01c0,4.66,7.34,13.26,18.65,14c13.42,0.88,29.9-5.8,29.9-13.53
			c0-0.09,1.56,1.6,4.07,5.25c6.7,9.76,20.2,33.57,28.82,75.02c6.8,32.73,4.19,76.49,9.09,132.95
			C1824.58,990.15,1824.06,993.77,1824.16,996.63z"/>
		<path class="st7" d="M1821.18,1005.04c0,0-10.74,4.81-30.83,8.98c-14.94,3.1-35.04,5.85-59.74,6
			c-39.28,0.25-54.15-13.29-54.15-13.29c-2.78,0.05,6.01-22.19,6.19-167.18c0.04-32.36,50.13-67.17,51.06-67.17l0.01,0.01
			c0,0-1.29,43.08,11.75,55.75c0,0,18.28-14.12,42-54.3c6.7,9.76,19.08,37.84,27.69,79.29c1.75,8.43,2.88,17.59,3.67,27.52
			c2.29,28.6,1.78,63.51,5.41,105.43c0.36,4.08-0.17,7.7-0.07,10.56C1824.33,1000.94,1825.49,1004.98,1821.18,1005.04z"/>
		<path class="st20" d="M1821.18,1005.04c0,0-10.74,4.81-30.83,8.98c-6.32-9.64-14.29-27.04-15.39-54.46
			c-1.87-46.37,42.18-106.07,42.18-106.07l1.68,27.15c2.29,28.6,1.78,63.51,5.41,105.43c0.36,4.08-0.17,7.7-0.07,10.56
			C1824.33,1000.94,1825.49,1004.98,1821.18,1005.04z"/>
		
			<rect x="1731.88" y="861.75" transform="matrix(0.866 -0.5 0.5 0.866 -222.769 1011.0323)" class="st9" width="86.69" height="118.91"/>
		<path class="st19" d="M1854.24,944.36c0,0-15.37,1.5-41.66-1.2c-18.96-1.95-43.61-6.09-72.25-14.55l8.37-14.3
			c0,0,34.23-1.51,59.31-5.18c6.25-0.91,11.92-1.96,16.36-3.15c5.45-1.46-21.61-70.04-35.26-110.37
			c-3.26-9.62-5.75-17.64-6.86-22.75c0,0,2.38,0.39,6.13,1.12c10.63,2.1,32.22,7.03,41.42,13.98
			C1842.24,797.36,1873.28,903.38,1854.24,944.36z"/>
		<path class="st19" d="M1749.01,914.31c0,0-11.6-10.86-16.08-10.86s-17.4,4.71-18.72,8.33c-1.32,3.62-1.84,10.14,1.85,11.59
			c3.69,1.45,18.98,5.07,22.93,5.43C1742.95,929.15,1752.71,926.98,1749.01,914.31z"/>
		<path class="st7" d="M1854.24,944.36c0,0-15.37,1.5-41.66-1.2c1.45-7.14,2.8-21.09-4.57-34.03c6.25-0.91,11.92-1.96,16.36-3.15
			c5.45-1.46-21.61-70.04-35.26-110.37c-1.09-13.04-1.67-21.77-1.67-21.77l0.94,0.14c10.63,2.1,32.22,7.03,41.42,13.98
			C1842.24,797.36,1873.28,903.38,1854.24,944.36z"/>
		<path class="st20" d="M1745.45,828.14c0,0,36.57-16.11,37.11-17.38c0.54-1.27-1.81-11.04-4.34-13.94c0,0,17.56,1.63,18.64-0.54
			c1.09-2.17,1.45-20.27,1.45-20.27s-6.88-7.24-15.93-7.96c0,0-7.92,19.65-10.86,25.52
			C1763.73,809.14,1745.45,828.14,1745.45,828.14z"/>
		<path class="st20" d="M1736.76,796.29c0,0,2.35,18.83,8.69,31.86c0,0-19.1-13.3-20.73-17.65c-1.63-4.34,4.62-12.76,4.62-12.76
			s-11.4-0.27-11.68-4.07c-0.27-3.8,3.53-18.73,3.53-18.73s9.81-7.16,12.52-6.89L1736.76,796.29z"/>
		<path class="st2" d="M1728.8,714.56c0,0,0.99-16.99,11.53-17.2c10.55-0.21,28.89-1.23,36.51-8.4c7.62-7.17-45.3-3.89-45.3-3.89
			S1725.15,705.55,1728.8,714.56z"/>
		<path class="st2" d="M1771.16,691.5c0,0,13.75,5.6,15.68,14.34C1786.84,705.83,1791.37,673.61,1771.16,691.5z"/>
	</g>
	<g>
		<g>
			<polygon class="st3" points="884.29,1311.46 895.68,1359.44 912.74,1359.34 913.36,1311.46 			"/>
			<polygon class="st3" points="1027.8,1313.51 1060.21,1359.44 1072.84,1343.22 1053.34,1307.19 			"/>
			<path class="st23" d="M911.3,712.48c-6.44-2.12-13.43-1.08-18.21,0.18c0.99-1.54,3.34-2.5,3.34-2.5
				c-3.09,0.16-9.19,4.49-9.19,4.49c-44.99-7.67-39.16,55.12-35.4,69.22c3.75,14.1-10.21,21.77-29.66,37.4
				c-37.11,29.82-34.96,59.3-34.96,59.3c0.36,0.13,0.74,0.27,1.15,0.45c1.35-3.9,4.27-11.29,7.64-13c-0.07,0.34-2.4,9.86-2.92,15.14
				c14.1,6.84,41.13,22.83,60.01,34.23c-0.65-2.84-1.35-6.92-0.74-9.27l4.36,11.46c10.11,6.12,17.1,10.45,17.1,10.45
				c-3.38-11.33,37.59-82.96,61.69-106.8c4.76-11.32,3.61-29.39,3.51-30.81c1.64,14.18,0.83,22.48-0.41,27.32
				C957.78,793.35,928.36,718.09,911.3,712.48z"/>
			<path class="st3" d="M929.1,827.99c0.14,0.06-13.68,7.24-24.08,4.4c-9.78-2.67-16.17-15.35-16.04-15.38
				c4.14-0.82,5.34-6.52,5.25-30.98l1.87,0.37l31.49,6.24c0,0-0.72,9.91-0.74,19.24C926.83,819.72,927.31,827.16,929.1,827.99z"/>
			<path class="st24" d="M878.59,729.54c0,0,11.96-19.28,34.18-7.75C912.77,721.79,901.26,722.11,878.59,729.54z"/>
			<path class="st25" d="M927.59,792.64c0,0-0.72,9.91-0.74,19.24c-17.62-0.5-26.93-16.57-30.75-25.48L927.59,792.64z"/>
			<path class="st23" d="M889.63,787.51c0,0-11.94-12.48-16.57-24.27c-3.31-8.42-5.39-41.68,28.07-43.57c0,0,9.63-0.97,19.72,3.23
				c8.02,3.35,20.29,11.59,14.59,42.12l-1.04,10.14L889.63,787.51z"/>
			<path class="st26" d="M1069.81,1332.73c0,0-8.37,1.44-15.24,1.97c-1.53,0.12-2.97,0.18-4.24,0.18c-3.31,0-9.27-1.25-13.27-2.18
				l-0.3-0.07c-1.76-0.42-3.1-0.76-3.6-0.88l-0.21-0.05c0,0-41.73-46.46-65.14-120.94c-0.54-1.74-1.12-3.49-1.73-5.26
				c-12.81-37.36-39.37-84.24-53.37-126.68c-2.23-6.75-4.23-13.12-6.02-19.14c-0.58-1.93-1.14-3.82-1.67-5.69
				c-10.32-35.84-13.3-59.37-16.05-84.5l84.14,21.41C973.12,990.89,1008.45,1144.04,1069.81,1332.73z"/>
			<path class="st3" d="M933.1,797.62c0,0-40.73,8.91-45.89-16.54c-5.16-25.45-13.89-41.44,11.9-48.21
				c25.79-6.77,32.82,1.92,36.61,9.99C939.51,750.95,943.56,794.64,933.1,797.62z"/>
			<path class="st23" d="M917.6,728.5c0,0-5.17,32.12-21.45,40c-16.28,7.88-24.66,4.78-24.66,4.78s11.06-13.12,10.11-31.93
				C881.6,741.34,906.29,715.99,917.6,728.5z"/>
			<path class="st23" d="M915.31,731.48c0,0,9.7,4.98,13.05,11.05c3.34,6.07,6.95,19.23,10.75,17.99c0,0,4.34-22-7.45-31.57
				C919.15,718.81,915.31,731.48,915.31,731.48z"/>
			<path class="st3" d="M895.1,1356.76c0,0,1.37,9.5-2.17,19.67c0,0-2.79,12.72,9.74,12.96c12.53,0.24,15.6-0.95,14.19-8.75
				c-1.42-7.8-4.12-21.3-4.12-21.3L895.1,1356.76z"/>
			<path class="st27" d="M892.93,1376.42c0,0-2.32,12.01-0.9,18.4c0,0,3.78,2.84,12.89,2.84c8.63,0,13.12-2.84,13.12-2.84
				s0.27-13.17-2.04-18.72C916,1376.1,907.12,1389.43,892.93,1376.42z"/>
			<path class="st3" d="M1103.04,1381.91c0,0-23.1-25.64-30.2-38.69l-17.18,8.8l38.4,36.06l8.98-1.18L1103.04,1381.91z"/>
			<path class="st27" d="M1117.72,1396.94c0,0-24.83,0-29.08-0.48c-4.26-0.47-7.68-6.62-12.29-15.84
				c-1.89-3.77-6.12-5.85-10.46-6.99v21.36h-6.56l-6.21-22.7c-4.09-7.52-0.33-14.33,2.55-20.27c3.35-0.01,12.36,2.28,29.42,21.51
				c5.61,6.31,11.8,8.57,17.95,8.38c0.08,0.06,0.17,0.1,0.26,0.13C1117.48,1388.43,1117.72,1396.94,1117.72,1396.94z"/>
			<path class="st28" d="M1054.57,1334.69c-1.53,0.12-2.97,0.18-4.24,0.18c-3.31,0-9.27-1.25-13.27-2.18l-0.3-0.07l-3.6-0.88
				l-0.21-0.05c0,0-41.73-46.46-65.14-120.94c-0.54-1.74-1.12-3.49-1.73-5.26c-12.81-37.36-39.37-84.24-53.37-126.68
				c-2.23-6.75-4.23-13.12-6.02-19.14c-0.58-1.93-1.14-3.82-1.67-5.69l14.88-11.3c0,0,44.68,72.35,58.51,140.44
				C989.88,1239.57,1039.25,1312.73,1054.57,1334.69z"/>
			<path class="st26" d="M921.46,1189.48c0.25,33.11-1.42,109.23-5.73,140.75c0,0-4.09,3.62-14.23,3.66
				c-10.38,0.04-15.03-3.79-15.03-3.79c-10.82-54.79-18.51-100.13-24.12-139.2c-4.6-32.06-8.68-59.55-11.82-83.21
				c-2.79-20.97-4.83-38.94-5.81-54.43c-0.13-2.11-0.25-4.16-0.34-6.17c-0.12-2.66-0.22-5.24-0.27-7.74
				c-0.05-2.52-0.06-4.97-0.04-7.35l0.36-0.04l20.9-2.04l66.05-6.44C930.29,1081.51,921.32,1170.23,921.46,1189.48z"/>
			<path class="st28" d="M901.5,1333.89c-8.84,0.51-15.03-3.79-15.03-3.79c-10.82-54.79-18.51-100.13-24.12-139.2
				c-4.6-32.06-8.68-59.55-11.82-83.21c-2.79-20.97-4.83-38.94-5.81-54.43c-0.12-7.63-0.2-14.95-0.29-21.29
				c-0.1-6.43-0.2-11.87-0.38-15.65l21.28,13.62l22.39,14.32c0,0-31.76,28.89-23.96,83.51
				C871.57,1182.38,890.64,1326.15,901.5,1333.89z"/>
			<path class="st29" d="M918.81,815.96c0,0,33.94-5.39,45.33,5.95c13.96,13.89,40.18,93.52,39.13,102.61
				c-0.4,3.47-14.17,1.86-18.9-3.1C960.84,896.73,927.08,834.43,918.81,815.96z"/>
			<path class="st29" d="M984.74,1038.32c-25.34,6.58-143.58,19.58-144.6-10.03c-0.25-7.22,0-15.95,0.57-25.39
				c1.76-29.25,6.56-65.4,8.87-85.29c1.05-9.12-2.45-49.95,0.24-72.21c0.39-3.3,0.93-6.19,1.63-8.51
				c5.11-16.79,28.05-21.35,39.84-21.75l35.55-1.21c0,0,36.71,41.01,41.82,53.6c5.11,12.6,6.78,55.72,10.75,76.61
				C983.36,965.02,997.06,1035.12,984.74,1038.32z"/>
			<path class="st26" d="M914.91,938.23c0,0-19.76,60.69-74.2,64.66c1.76-29.25,6.56-65.4,8.87-85.29
				c1.05-9.12-2.45-49.95,0.24-72.21c0.71,0.15,1.35,0.54,2.09,0.69C911.85,857.66,920.35,925.58,914.91,938.23z"/>
			<path class="st25" d="M1001.56,926.01c0,0-35.68,11.7-79.16-7.07c0,0-11.84-1.12-17.72,0.38c0,0,1.26-11.74,7.01-14.94
				c5.75-3.19,30.46,3.72,37.85,2.7C965.7,904.86,993.84,903.12,1001.56,926.01z"/>
			<path class="st26" d="M969.76,898.68c0,0,3.35-29-8-46.47c0,0,4.01-1.36,6.88,3.18c2.88,4.54,22.92,47.62,13.37,50.79
				C972.48,909.34,969.76,898.68,969.76,898.68z"/>
			<path class="st25" d="M917.67,903.53c-0.51,0-16.85,2.13-19.75,4.18c-2.89,2.04-0.34,9.19,5.11,9.87
				C908.48,918.26,917.67,903.53,917.67,903.53z"/>
			<path class="st3" d="M873,914.51c0,0,46.54-1.7,88.76-9.87c0,0,7.72,0.07,6.81,6.81c-0.91,6.74-73.17,44.47-89.06,37.2
				L873,914.51z"/>
			<path class="st3" d="M961.76,904.64c0,0,4.94-5.96,8-5.96c3.06,0,11.06,3.92,12.26,7.49c1.19,3.58-9.47,1.02-13.45,5.28
				C964.59,915.71,961.76,904.64,961.76,904.64z"/>
			<path class="st29" d="M891.29,815.14c0,0-39.11,0.09-44.83,14.14c-10.44,25.65,23.97,110.74,33.05,119.37
				c3.91,3.71,21.99-2.14,21.99-26.65C901.5,909.29,900.59,835.03,891.29,815.14z"/>
		</g>
	</g>
	<g>
		<g>
			<path class="st3" d="M871.47,1030.24c0,0,25.17,8.69,21.63,37.69c0,0-2.32,11.76-9.57,6.55c-7.25-5.22-3.85-4.26-14.2-11.39
				c-10.35-7.13-17.1-18.38-15.92-27.32L871.47,1030.24z"/>
			<path class="st7" d="M872.62,1032.1l-14.91,18.09c-0.69,0.85-1.79,1.23-2.87,1.03c-13.97-2.57-62.07-33.57-77.82-46.22
				c-1.71-1.37-3.03-2.53-3.9-3.41c-5.87-5.98-26.13-35.51-40.51-61.81c-8.28-15.15-14.61-29.22-15.11-37.11
				c-1.79-28.15,13.02-67.52,13.02-67.52c43.81,15.25,48.42,50.22,48.42,50.22l24.29,90.39l68.79,51.42
				C873.6,1028.35,873.87,1030.6,872.62,1032.1z"/>
			<path class="st30" d="M777.03,1005c-1.71-1.37-3.03-2.53-3.9-3.41c-5.87-5.98-26.13-35.51-40.51-61.81
				c-1.86-15.89-0.58-30.8,5.97-41.22C738.59,898.56,775.83,964.09,777.03,1005z"/>
			<path class="st3" d="M751.79,1265.42l-7.45,31.06l-4.61,19.22l-15.34,63.98c0,0-13.13,4.05-26.78,0c0,0-5.06-21.17-5.2-47.58
				c-0.08-13.81,1.19-29.06,5.22-43.46c1.64-5.86,3.74-11.57,6.4-16.99C725.67,1227.43,751.79,1265.42,751.79,1265.42z"/>
			<path class="st9" d="M764.5,1398.38h-72.1c0,0-1.14-10.91,2.04-21.35c0.47-1.55,1.03-3.09,1.71-4.58c0,0,16.1,3.65,29.98,0
				c0,0,13.05,11.12,20.94,14.52C754.95,1390.38,763.67,1388.53,764.5,1398.38z"/>
			<path class="st31" d="M744.34,1296.48l-4.61,19.22c-7.84,5-24.75,14.06-47.33,16.4c-0.08-13.81,1.19-29.06,5.22-43.46
				c6.63-3.36,13.38-5.13,19.13-4.12C731.07,1287.02,739.58,1292.25,744.34,1296.48z"/>
			<path class="st32" d="M727.05,1398.38H692.4c0,0-1.14-10.91,2.04-21.35C703.14,1379.74,720.84,1386.53,727.05,1398.38z"/>
			<path class="st3" d="M694.31,1265.42l-7.45,31.06l-4.61,19.22l-15.34,63.98c0,0-13.13,4.05-26.78,0c0,0-5.06-21.17-5.2-47.58
				c-0.08-13.81,1.19-29.06,5.22-43.46c1.64-5.86,3.74-11.57,6.4-16.99C668.2,1227.43,694.31,1265.42,694.31,1265.42z"/>
			<path class="st9" d="M638.67,1372.44c0,0,16.1,3.65,29.98,0c0,0,13.05,11.12,20.94,14.53c7.89,3.41,16.61,1.56,17.44,11.41h-72.1
				C634.92,1398.38,633.42,1383.99,638.67,1372.44z"/>
			<path class="st31" d="M686.86,1296.48l-4.61,19.22c-7.84,5-24.75,14.06-47.33,16.4c-0.08-13.81,1.19-29.06,5.22-43.46
				c6.63-3.36,13.38-5.13,19.13-4.12C673.59,1287.02,682.1,1292.25,686.86,1296.48z"/>
			<path class="st33" d="M766.83,1294.42c-1.73,6.41-7.55,10.85-14.18,10.85H637.03c-8.71,0-15.56-7.4-14.9-16.08
				c1.21-15.75,5.55-41.47,7.44-58.83c0.79-7.22,1.15-12.99,0.69-16c-11.67-77.22-21.47-168.17-20.28-185.56
				c0.17-2.45,0.29-3.71,0.29-3.71s8.42-0.71,21.23-1.21c37.23-1.47,111.55-1.21,123.9,23.13c12.58,24.8,20.17,189.49,20.17,189.49
				C777.43,1251.89,770.93,1279.26,766.83,1294.42z"/>
			<path class="st34" d="M629.58,1230.36c0.79-7.22,1.15-12.99,0.69-16c-11.67-77.22-21.47-168.17-20.28-185.56
				c0.17-2.45,0.29-3.71,0.29-3.71s8.42-0.71,21.23-1.21c19.26,11.35,31.8,30.68,31.8,30.68S659.43,1199.06,629.58,1230.36z"/>
			<path class="st34" d="M686.77,720.56c0-8.57,5.37-15.84,14.6-13.54c8.31,2.08,16.43,1.99,16.43,10.55
				c0,8.57-6.95,18.5-15.52,18.5C693.72,736.08,686.77,729.13,686.77,720.56z"/>
			<path class="st33" d="M696.6,795.88c0,0-48.11-43.33-4.56-74.01c0,0,13-3.46,19.6-2.23c0,0,23.68-6.93,37.53,9.15
				c13.85,16.08,19.87,27.71,8,42.06C745.3,785.2,696.6,795.88,696.6,795.88z"/>
			<path class="st3" d="M641.39,1057.58c0,0,11.88,23.83-10.96,42.05c0,0-9.9,6.77-11.42-2.03c-1.52-8.8,0.23-5.73-2.16-18.07
				c-2.39-12.34,0.67-25.1,7.77-30.66L641.39,1057.58z"/>
			<path class="st3" d="M736.01,795.47c0,0-0.59,6.49-1.69,15.26c-0.54,4.28-1.19,9.12-1.96,14c-0.55,3.51-1.16,7.04-1.82,10.42
				l-14.9,50.31l-34.98-56.6c0,0,8.22-6.8,19.36-43.66c0.11-0.39,0.18-0.6,0.18-0.6L736.01,795.47z"/>
			<path class="st7" d="M756.4,1043.67c0.46,5.65-0.98,6.68-0.98,6.68s-21.51,7.8-75.6,5.1c-5.85-0.29-11.37-0.59-16.51-0.9
				c-34.86-2.06-53.5-4.21-53.5-4.21s-28.55-65.9,25.09-147.1c6.07-9.18,13.18-18.56,21.51-28.05c8.69-9.91,10.6-23.16,13.89-35.76
				c0.94-3.61-1.78-4.41-0.42-7.82c0,0,9.78-2.77,10.79-2.77c5.55,4.9,12.88,14.41,31.07,16.29c12.3,1.28,17.11-5.65,18.86-9.8
				c4.69,1.69,9.55,4.62,13.53,6.53c32.96,15.82,35.99,46.51,35.99,46.51s-30.29,99.6-32.17,112.03
				C747.1,1005.95,754.05,1014.55,756.4,1043.67z"/>
			<path class="st31" d="M734.32,810.73c-0.54,4.28-2.35,16.01-3.12,20.89c-37.04-14.44-32.19-42.58-31.18-46.42
				c0.11-0.39,0.18-0.6,0.18-0.6S719.8,798.51,734.32,810.73z"/>
			<g>
				<path class="st3" d="M742.26,815.71c0,0-42.78,1.37-43.22-25.28c-0.44-26.65-6.26-44.43,21.03-46.43
					c27.29-2,32.77,8.08,35.09,16.94C757.46,769.79,753.38,814.66,742.26,815.71z"/>
			</g>
			<path class="st33" d="M746,740c0,0-2.69,44.5-54.84,39.73C691.16,779.73,692.27,718.1,746,740z"/>
			<path class="st33" d="M736.01,744.43c0,0,14.61,18.09,21.24,23.86C757.26,768.28,773.51,744.96,736.01,744.43z"/>
			<path class="st33" d="M736.01,744.43c0,0,13.13,22.17,19.76,27.94C755.77,772.37,773.51,744.96,736.01,744.43L736.01,744.43z"/>
			<path class="st30" d="M663.31,1054.56c-34.86-2.06-53.5-4.21-53.5-4.21s-28.55-65.9,25.09-147.1
				C645.75,928.57,671.36,996.22,663.31,1054.56z"/>
			<path class="st7" d="M680.66,828.86c0,0-41.39,8.49-59.82,29.84c-14.13,16.36-29.58,96.35-29.58,109.56
				c0,12.63,14.52,79.78,23.58,92.65c0.63,0.89,1.68,1.39,2.77,1.27l23.31-2.47c1.95-0.21,3.32-2,3.02-3.93l-13.1-84.88l45.97-81.53
				C676.8,889.38,703.91,857.25,680.66,828.86z"/>
		</g>
		<g>
			<path class="st5" d="M858.21,1375.4c0,0,3.51,6.84,11.27,8.53c4.89,1.07,9.08,3.61,11.69,7.18c2.2,3.02,0.07,7.26-3.66,7.26
				h-39.43c-3.36,0-5.98-2.9-5.64-6.24c0.29-2.92,0.6-6.32,0.73-8.93c0.29-5.7,6-10.28,6-10.28L858.21,1375.4z"/>
			<path class="st35" d="M867.14,1275.96c1.65,29.98-2.44,98.13-2.44,98.13s-2.75,7.6-20.11,9.41c-9.3,0.97-17.67-1.44-17.67-1.44
				c-3.5-16.13-6.74-31.54-9.72-46.19c-21.43-105.15-29.79-170.09-29.79-170.09l84.6-19.67c0,0-3.71,59.36-4.8,99.84
				C866.86,1258.59,866.78,1269.39,867.14,1275.96z"/>
			<path class="st5" d="M872,1146.11c0,0-3.71,59.36-4.8,99.84l-50.01,89.92c-21.43-105.15-29.79-170.09-29.79-170.09L872,1146.11z"
				/>
			<path class="st35" d="M786.94,1010.16c0,0-32.74-14.9-57.5-1.87c-24.77,13.04-9.63,120.63,25.79,131.06l0,0
				C755.23,1139.35,821.58,1160.57,786.94,1010.16z"/>
			<path class="st31" d="M881.64,1171.2L881.64,1171.2L881.64,1171.2c-0.1-0.15-0.2-0.29-0.32-0.42c-1.35-2.06-4.3-9.44-4.3-9.44
				l-5.31,6.95c-0.14,0.15-2.24-1.49-2.35-1.31l0.52,17.99l5.28-1.25c0.23-0.06,0.45-0.14,0.66-0.23l0,0l0,0
				c0.64-0.3,1.21-0.77,1.61-1.41l4.26-6.76C882.51,1174.02,882.44,1172.4,881.64,1171.2z"/>
			<path class="st31" d="M857.24,993.44c0,0,10.43,0.03,16.65,14.68c12.91,30.38,7.3,95.94,6.52,105.33c0,0,4.43,18.64-2.15,50.88
				l-8.58,5.08c0,0-13.22-127.38-11.6-139.97C859.68,1016.86,857.24,993.44,857.24,993.44z"/>
			<path class="st5" d="M789.57,1375.4c0,0,3.51,6.84,11.27,8.53c4.89,1.07,9.08,3.61,11.69,7.18c2.2,3.02,0.07,7.26-3.66,7.26
				h-39.43c-3.36,0-5.98-2.9-5.64-6.24c0.29-2.92,0.6-6.32,0.73-8.93c0.29-5.7,5.99-10.28,5.99-10.28L789.57,1375.4z"/>
			<path class="st35" d="M817,873.27c-8.43,0-19.03,3.63-24.71,9.15c-6.04,5.87-12.32,6.17-16.79,13.09
				c-4.66,7.22-7.55,14.72-5.21,24.88c2.56,11.1,2.04,21.83,9.01,29.98c3.45,4.03,9.07,4.49,12.99,8.19
				c7.2,6.8,15.38,8.96,24.71,8.96c17.59,0,28.54-10.42,37.55-23.41c7.21-10.4,5.78-17.42,7.48-26.32
				C867.35,889.79,843.98,873.27,817,873.27z"/>
			<path class="st3" d="M841.77,986.19l-33.63,17.19l-6.74-23.33c0,0,4.28-8.07,6.22-21.3c0.81-5.56,1.21-12.03,0.7-19.2l27.4,14.03
				c0,0-0.65,2.53-1.09,6.27c-0.47,4.04-0.67,9.49,0.47,14.66C836.09,978.95,838.08,983.19,841.77,986.19z"/>
			<path class="st35" d="M763.86,1155.24c0,0-6.39,84.74-4.97,219.8c0,0,7.71,4.06,17.01,4.98c17.37,1.73,21.6-5.16,21.6-5.16
				s17.76-65.92,22.2-95.62c4.09-27.38,30.98-126.19,30.98-126.19L763.86,1155.24z"/>
			<path class="st36" d="M864,988.54c-2.99-1.4-12.37-5.16-26.48-7.48c0.15,4.83-1.14,9.34-9.63,10.46
				c-11.29,1.47-21.38-6.23-26.49-11.47l0,0l0,0c0,0-7.96,0.85-17.24,2.88c-4.64,1.02-9.62,2.33-14.09,3.99
				c-5.42,1.99-10.11,4.48-12.6,7.54c0,0,0,0-0.01,0l0,0c-8.68,10.66-22.97,42.75-22.97,42.75s23.79,8.82,29.78,13.96l0.14,1.15
				l3.72,30.91l-11.09,61.57c-0.09,0.54-0.15,1.08-0.15,1.61c0,4.12,2.81,7.82,6.95,8.81c0,0,0.95,0.16,2.71,0.4
				c11.75,1.65,59.46,7.34,96.87-2.81c8.41-2.28,13.95-10.31,13.26-19.01l-6.1-76.53c3.26-0.56,7.01-1.15,10.07-1.49
				c2.54-0.28,4.58-0.37,5.43-0.12C886.08,1055.68,881.86,995.92,864,988.54z"/>
			<path class="st37" d="M793.41,1102.11c-0.47,21.48-14.55,46.72-26.84,53.53c-1.76-0.24-2.71-0.4-2.71-0.4
				c-4.13-0.99-6.95-4.7-6.95-8.81c0-0.53,0.05-1.07,0.15-1.61l11.09-61.57l-3.72-30.91c0.18-0.54,0.28-0.83,0.28-0.83
				S794.24,1064.16,793.41,1102.11z"/>
			<path class="st37" d="M880.66,1055.8c-3.13,0.35-10.08,1.49-10.08,1.49l-3.52-32.06C867.05,1025.23,878.82,1047.83,880.66,1055.8
				z"/>
			<path class="st35" d="M759.03,1133.82l2.88-15.99c48.76-70.55,52.45-83.21,30.52-114.88c-6.28-9.07-17.7-14.74-22.36-16.03
				c4.47-1.66,9.44-2.97,14.09-3.99c4.63,2.17,8.88,4.31,12.19,7.17C863.27,1048.04,759.03,1133.82,759.03,1133.82z"/>
			<path class="st3" d="M787.77,1066.89c1.21-0.09,6.47-2.73,6.47-2.73s2.64-19.56,21.73-20.88c0,0,7.95,0.05,6.32,5.48
				c-1.63,5.43-1.8,3.07-3.93,10.78s-7.68,13.58-13.58,13.93l-6.05,1.64C798.74,1075.11,784.59,1067.12,787.77,1066.89z"/>
			<g>
				<path class="st3" d="M794.24,1064.16c0,0-32.04,2.91-36.78,5.01c0,0,2.6-7.03,7.22-17.66c-4.18-4.11-17.91-10.22-27-13.03
					c-6.93,17.69-9.6,35.2-5.71,52.08c0.41,1.78,1.98,3.06,3.81,3.14c10.25,0.48,44.27,0.31,68.98-20.46L794.24,1064.16z"/>
			</g>
			<path class="st31" d="M835.1,974.51c-15.58-0.42-27.48-15.76-27.48-15.76l27,1.1C834.16,963.89,833.95,969.33,835.1,974.51z"/>
			<path class="st3" d="M836.58,965.1c0,0-34.42,4.2-35.16-20.06c-0.73-24.25,13.62-39.96,23.19-39.78
				c19.1,0.36,22.25,8.08,24.46,16.11C851.29,929.4,852.43,963.39,836.58,965.1z"/>
			<path class="st0" d="M827.38,951.12c0,0,0.75,3.02,8.29,2.47c0,0,6.33-0.47,6.1-3.8C841.76,949.79,835.59,947.49,827.38,951.12z"
				/>
			<path class="st35" d="M833.13,905.48c0,0-29.42-0.02-22.66,20.18c4.26,12.73-9.91,14.71-9.91,14.71l-6.82-20.4l4.27-15.9
				L833.13,905.48z"/>
		</g>
	</g>
	<g>
		<g>
			<path class="st19" d="M1849.21,978.28c-32.4-8.25-68.01-58.51-68.01-58.51l9.12-7.91c9.44,11.13,48.71,30.31,48.71,30.31
				c-0.21-10.19,0.06-19.48,0.7-27.94c4.36-57.5,26.03-76.65,31.95-80.85c0.95-0.68,1.5-0.97,1.5-0.97s0.02,0.42,0.06,1.21
				c0.09,1.71,0.24,5.15,0.4,9.87C1874.84,878.68,1876.28,985.18,1849.21,978.28z"/>
			<path class="st19" d="M1790.31,911.86c-0.14-1.36-1.05-21.11-4.97-24.87c-3.92-3.76-11.67-8.88-13.9-8.47
				c-2.23,0.41-9.79,12.99-6.22,21.66c3.57,8.66,15.97,19.6,15.97,19.6L1790.31,911.86z"/>
			<g>
				<path class="st38" d="M1798.37,914.16l-21.34,0.89c-0.71,0.03-1.31-0.52-1.34-1.23l-1.7-40.69c-0.03-0.71,0.52-1.31,1.23-1.34
					l21.34-0.89c0.71-0.03,1.31,0.52,1.34,1.23l1.7,40.69C1799.62,913.53,1799.07,914.13,1798.37,914.16z"/>
				<path class="st39" d="M1792.82,914.39l-19.35,0.81c-1.26,0.05-2.32-0.92-2.37-2.18l-1.62-38.7c-0.05-1.26,0.92-2.32,2.18-2.37
					l19.35-0.81c1.26-0.05,2.32,0.92,2.37,2.18l1.62,38.7C1795.05,913.28,1794.08,914.34,1792.82,914.39z"/>
			</g>
			<path class="st19" d="M1769.82,880.03c0,0,5.82-6.49,11.63-1.53c5.82,4.96-0.39,15.56-5.43,18.46c-5.05,2.9-6.67,4.41-6.67,4.41
				L1769.82,880.03z"/>
		</g>
		<path class="st21" d="M1919.75,1312.56c-1.97,7.85-4.15,15.32-6.36,22.27c-0.48,1.49-0.94,2.96-1.42,4.39
			c-0.24,0.71-0.47,1.42-0.7,2.11c-0.47,1.38-0.93,2.73-1.38,4.05c-0.6,1.72-1.2,3.4-1.79,5.02c-0.43,1.2-0.87,2.38-1.29,3.54
			c-6.57,17.62-12.08,28.79-12.08,28.79l-13.09-0.9c0,0,4.92-23.38,5.9-56.87c0.03-1.2,0.07-2.4,0.09-3.62
			c0.05-2.6,0.08-5.24,0.08-7.95c0-1.11-0.01-2.23-0.02-3.36c-0.26-28.84-3.83-62.93-15.23-95.48
			c-9.26-26.46-15.98-51.22-20.84-73.59c-15.68-72.22-11.99-119.67-11.99-119.67l73.64,8.62l3.43,0.4
			c0.31,33.82,1.18,79.75,1.94,115.65c0.13,6.23,0.25,12.17,0.38,17.68c0.51,23.05,0.89,38.81,0.89,38.81
			C1934.09,1232.96,1928.94,1276,1919.75,1312.56z"/>
		<path class="st2" d="M1898.67,768.45c0,0,17.42,14.83,1.45,31.91c0,0,13.31,1.31,17.82-2.38c0,0-0.89,1.8-1.71,2.61
			c0,0,14.88,0.54,21.03-4.11c6.14-4.64,2.2-80.79-39.11-72.27c0,0-35.01-2.64-31.75,37.87c3.26,40.51-9.96,40.51-9.96,40.51
			s3.68,1.81,5.45,1.81c0,0,2.59-0.99,3.11-2.42c0,0-0.51,2.25-1.18,2.97c0,0,14.27,1.35,21.39-4.03
			C1892.33,795.52,1900.7,776.81,1898.67,768.45z"/>
		<path class="st19" d="M1954.89,1013.04c-13.92-31.21-20.58-40.04-20.81-49.86c-0.18-7.77,3.65-16.15,11.08-36.69
			c1.75-4.84,2.96-9.82,3.7-14.85c5.88-39.61-17.02-82.43-31.26-85.35c-3.96-1.05-10.68-15.35-10.59-38.41l-1.78,0.35l-29.98,5.94
			c0,0,0.68,9.43,0.7,18.32c0.02,7.41-0.38,14.94-2.06,15.83c-2.16,0.2-4.12,0.59-4.12,0.59s-25.37,17.82-27.01,41.98
			c-2.19,32.28,20.57,70.55,0.39,135.06C1822.55,1071.84,1962.58,1030.29,1954.89,1013.04z"/>
		<path class="st21" d="M1875.26,794.17c0,0,0.68,9.43,0.7,18.32c16.78-0.47,25.64-15.78,29.28-24.26L1875.26,794.17z"/>
		<path class="st2" d="M1908.33,784.97c0,0,8.79-13.89,10.9-25.77c1.51-8.48-2.81-39.91-34.4-35.38c0,0-9.17,0.9-17.8,6.73
			c-6.86,4.63-16.75,14.63-5.69,42.06l2.87,9.27L1908.33,784.97z"/>
		<path class="st19" d="M1869.66,802.58c0,0,39.69,0.66,39.72-24.07c0.03-24.72,5.17-41.29-20.17-42.75
			c-25.34-1.46-30.27,7.97-32.29,16.22C1854.9,760.23,1859.33,801.77,1869.66,802.58z"/>
		<path class="st2" d="M1871.13,735.16c0,0,10.87,29,27.54,33.29c16.68,4.29,23.91-0.18,23.91-0.18s-12.79-10.16-15.45-27.9
			C1907.13,740.37,1879.32,721.35,1871.13,735.16z"/>
		<path class="st2" d="M1873.82,737.51c0,0-8.12,6.48-10.09,12.77c-1.98,6.29-2.87,19.26-6.65,18.82c0,0-8.19-19.71,1.01-30.87
			C1867.85,726.4,1873.82,737.51,1873.82,737.51z"/>
		<path class="st19" d="M2006.51,1046.2l-11.92,3.57c0,0-39.3-65.22-42.88-82.18c-1.17-5.53-4.02-16.58-7.36-28.97
			c-6.9-25.65-15.81-57.04-15.81-57.04l-2.93-12.71l-10-43.33c0,0,19.16,1.96,30.36,6.64c3.71,1.55,6.54,3.4,7.53,5.57
			c8.23,18.1,16.45,63.79,22.23,96.37c3.22,18.16,5.67,32.26,6.96,35.25C1986.26,977.71,1997.18,1023.57,2006.51,1046.2z"/>
		<path class="st2" d="M1872.31,738.49c0,0,7.74,30.37,28.79,40.1c0,0-21.04-18.66-22.83-38.71
			C1876.48,719.83,1872.31,738.49,1872.31,738.49z"/>
		<path class="st19" d="M2005.67,1044.21c0,0,3.62,8.54,7.4,10.92c3.77,2.38,7.36,8.1,8.14,12.71c1.44,8.45-5.04,13.7-9.81,13.7
			c-4.76,0-9.32-6.5-12.12-22.01c-0.15-0.85-4.68-9.75-4.68-9.75L2005.67,1044.21z"/>
		<path class="st19" d="M1962,1306.22c-4.24,45.19-22.88,74.42-22.88,74.42l-6.37,5.79c0,0-5.8-33.09-9.99-70.97
			c-3.99-36-9.46-74.1-15.65-85.74c-9.25-17.38-16.06-52.91-20.97-90.46c-8.11-62.13-10.99-129.77-10.99-129.77l74.67-3.7
			c7.51,12.62,10.78,33.33,11.56,56.88c0.82,24.75-1.13,52.65-3.83,77.58c-3.78,34.9-9.04,63.99-10.26,70.52
			c0,0.01,0,0.02-0.01,0.03c-0.16,0.86,0.09,1.72,0.49,2.5C1962.65,1242.72,1964.79,1276.36,1962,1306.22z"/>
		<path class="st12" d="M1874.86,909.28c-1.68,41.02-7.82,81.63-25.67,79.02c-21.89-3.2-27.59-23.63-28.75-38.81
			c-0.72-9.45,0.32-16.88,0.32-16.88s10.77-0.05,12.52-1.66c8.27-7.64,5.82-82.6,9.91-90.38c4.1-7.78,30.67-12.78,30.67-12.78
			S1876.53,868.74,1874.86,909.28z"/>
		<path class="st15" d="M1874.86,909.28c-1.68,41.02-7.82,81.63-25.67,79.02c-21.89-3.2-27.59-23.63-28.75-38.81
			c5.37-0.27,14.83-1.58,18.59-7.31c5.38-8.21,22.17-61.05,22.17-61.05S1867.81,892.99,1874.86,909.28z"/>
		<path class="st2" d="M1919.75,1312.56c-1.97,7.85-4.15,15.32-6.36,22.27c-0.48,1.49-0.94,2.96-1.42,4.39
			c-0.24,0.71-0.47,1.42-0.7,2.11c-0.47,1.38-0.93,2.73-1.38,4.05c-0.6,1.72-1.2,3.4-1.79,5.02c-0.43,1.2-0.87,2.38-1.29,3.54
			c-6.57,17.62-12.08,28.79-12.08,28.79l-13.09-0.9c0,0,4.92-23.38,5.9-56.87c0.03-1.2,0.07-2.4,0.09-3.62
			c0.05-2.6,0.08-5.24,0.08-7.95c0-1.11-0.01-2.23-0.02-3.36c-0.26-28.84-3.83-62.93-15.23-95.48
			c-9.26-26.46-15.98-51.22-20.84-73.59c7.78,1.61,14.64-0.03,34.52-1.7c2.09-0.18,12.08,12.2,21.95,28.57
			c0.51,23.05,11.82,34.63,11.82,34.63C1934.09,1232.96,1928.94,1276,1919.75,1312.56z"/>
		<path class="st9" d="M1962,1306.22c-4.24,45.19-22.88,74.42-22.88,74.42l-6.37,5.79c0,0-5.8-33.09-9.99-70.97
			c-3.99-36-9.46-74.1-15.65-85.74c-9.25-17.38-16.06-52.91-20.97-90.46c6.87,2.86,30.26,10.29,71.41,0.98
			c-3.78,34.9-9.04,63.99-10.26,70.52c0,0.01,0,0.02-0.01,0.03c-0.16,0.86,0.09,1.72,0.49,2.5
			C1962.65,1242.72,1964.79,1276.36,1962,1306.22z"/>
		<path class="st2" d="M1851.63,964.99c0,0,43.92,11.02,82.46-1.81c0,0,21.16,44.92,26.98,64.17c5.82,19.25,15.24,58.98,15.24,58.98
			s-78.23,24.17-142.54,0c0,0-2.93-52.94,5.5-80.54C1847.69,978.2,1851.63,964.99,1851.63,964.99z"/>
		<path class="st12" d="M2010.85,985.57c0,10.31-10.51,16.64-21.79,19.72c-10.85,2.96-22.4,2.92-26.01,0.51
			c-6.23-4.18-16.39-50.63-19.36-64.77c-0.53-2.56-0.84-4.06-0.84-4.06s-8.1,19.33-8.36,21.14c-0.11,0.81-0.21,1.93-0.29,2.91
			c-0.08,1.19-0.13,2.17-0.13,2.17s-43.97,22.19-82.45,1.81c0,0-15.65-90.42-8.85-105.99c3.38-7.73,20.98-23.69,28.02-30.57
			c1.58-1.55,1.43-4.61,0.81-7.41c-0.51-2.37,1.62-4.45,3.96-3.84c4.53,1.18,12.68,0.98,21.41-1.89c4.35-1.42,8.84-3.5,13.09-6.4
			c1.24-0.84,2.92-0.06,3.1,1.42c0.66,5.39,2.29,15.24,5.27,15.24c4.1-0.02,32.05,3.41,34.09,6.86c0.71,1.2,7.98,17.65,17.15,39.43
			c0,0,0.01,0.02,0.02,0.06C1986.94,912.75,2010.85,972.39,2010.85,985.57z"/>
		<path class="st15" d="M1942.85,936.97c0,0-8.1,19.33-8.36,21.14c-0.11,0.81-0.21,1.93-0.29,2.91c-3.92,3.19-8.65,5.62-13.47,7.09
			c-13.71,4.15-19.66-22.12-18.84-35.22c0.82-13.11,20.2-50.52,26.66-51.3C1935,880.81,1942.85,936.97,1942.85,936.97z"/>
		<path class="st15" d="M1943.69,941.03c-0.53-2.56-0.84-4.06-0.84-4.06C1943.28,938.35,1943.56,939.71,1943.69,941.03z"/>
		<g>
			<path class="st6" d="M1887.11,973.37c-25.02,0-34.94-7.02-35.71-7.61l-1.62-11.78c0.24,0.18,33.81,20.34,85.76,1.03l-1.1,8.93
				C1914.46,971.36,1900.1,973.37,1887.11,973.37z"/>
		</g>
		<path class="st15" d="M2010.85,985.57c0,10.31-10.51,16.64-21.79,19.72c15.55-18.51-18.47-130.54-19.34-133.4
			C1986.94,912.75,2010.85,972.39,2010.85,985.57z"/>
		<path class="st15" d="M1918.45,825.54c0,0-20.93,13.25-36.77,10.12c0,0-3.8-2.4,1.44-4.82c4.92-2.26,16.38-8.95,13.86-15.56
			c4.35-1.42,8.84-3.5,13.09-6.4c1.24-0.84,2.92-0.06,3.1,1.42C1913.85,815.7,1915.48,825.54,1918.45,825.54z"/>
		<g>
			<path class="st2" d="M1902.27,1393.71h-8.36c-2.8-0.44-4.87-1.25-7.74-1.63c-4.36-0.57-6.37,1.21-6.77,1.63
				c-0.05,0.05-0.08,0.08-0.08,0.08h-35.5c-0.89-1.27-0.04-4.23,0.8-6.4c0.57-1.48,1.8-2.6,3.32-3.04
				c3.76-1.09,11.18-2.06,17.98-8.21c3.82-3.46,18.46-12.7,18.46-12.7l0.08-0.02c0.32,0.01,1.85,0.48,8.51,6.1
				c3.44,2.9,9.31-4.1,9.31-4.1s1.1,0.91,1.92,2.61c0.66,1.34,1.14,3.18,0.76,5.45c-0.53,3.2,1.18,9.14,2.54,13.16
				c0.83,2.44,1.52,4.16,1.52,4.16S1909.46,1392.81,1902.27,1393.71z"/>
			<path class="st40" d="M1904.23,1368.03c-2,1.41-6.21,4.17-9,4.54c-3.77,0.5-10.82-9.13-10.82-9.13l0.08-0.02
				c0.32,0.01,1.85,0.48,8.51,6.1c3.44,2.9,9.31-4.1,9.31-4.1S1903.41,1366.33,1904.23,1368.03z"/>
			<path class="st40" d="M1902.27,1393.71h-8.36c-2.8-0.44-4.87-1.25-7.74-1.63c-4.36-0.57-6.37,1.21-6.77,1.63
				c-0.05,0.05-0.08,0.08-0.08,0.08h-35.5c-0.89-1.27-0.04-4.23,0.8-6.4c1.08-0.96,1.38,4.16,1.98,4.98
				c0.6,0.82,28.96,0.3,30.59-0.89c1.64-1.19,6.55-3.27,13.4-1.64c5.96,1.42,14.75-2.23,16.92-3.2c0.83,2.44,1.52,4.16,1.52,4.16
				S1909.46,1392.81,1902.27,1393.71z"/>
		</g>
		<g>
			<path class="st2" d="M1946.86,1393.71h-8.36c-2.8-0.44-4.87-1.25-7.74-1.63c-4.36-0.57-6.37,1.21-6.76,1.63
				c-0.05,0.05-0.08,0.08-0.08,0.08h-35.5c-0.89-1.27-0.04-4.23,0.8-6.4c0.57-1.48,1.8-2.6,3.32-3.04
				c3.76-1.09,11.18-2.06,17.98-8.21c3.82-3.46,18.46-12.7,18.46-12.7l0.08-0.02c0.32,0.01,1.85,0.48,8.51,6.1
				c3.44,2.9,9.31-4.1,9.31-4.1s1.1,0.91,1.92,2.61c0.66,1.34,1.14,3.18,0.76,5.45c-0.53,3.2,1.18,9.14,2.54,13.16
				c0.83,2.44,1.53,4.16,1.53,4.16S1954.05,1392.81,1946.86,1393.71z"/>
			<path class="st40" d="M1948.82,1368.03c-2,1.41-6.21,4.17-9,4.54c-3.77,0.5-10.82-9.13-10.82-9.13l0.08-0.02
				c0.32,0.01,1.85,0.48,8.51,6.1c3.44,2.9,9.31-4.1,9.31-4.1S1948,1366.33,1948.82,1368.03z"/>
			<path class="st40" d="M1946.86,1393.71h-8.36c-2.8-0.44-4.87-1.25-7.74-1.63c-4.36-0.57-6.37,1.21-6.76,1.63
				c-0.05,0.05-0.08,0.08-0.08,0.08h-35.5c-0.89-1.27-0.04-4.23,0.8-6.4c1.08-0.96,1.38,4.16,1.98,4.98s28.96,0.3,30.59-0.89
				c1.64-1.19,6.55-3.27,13.4-1.64c5.96,1.42,14.75-2.23,16.92-3.2c0.83,2.44,1.53,4.16,1.53,4.16S1954.05,1392.81,1946.86,1393.71z
				"/>
		</g>
	</g>
	<g>
		<path class="st36" d="M2288.43,1221.53c-5.04,12.88-30.83,39.4-57.42,64.44c-31.75,29.92-64.63,57.73-64.63,57.73
			s-15.03,4.59-8.48-17.53c0,0,36.25-66.6,51.81-86.26c4.45-5.61,9.04-10.74,13.35-15.2c10.76-11.17,19.68-18.15,19.68-18.15
			s-2.04-3.28-5.35-8.95c-16.18-27.71-62.62-112.54-48.27-150.21c17.27-45.37,60.19-65.81,60.19-65.81s13.62,57.42,25.1,116.44
			C2284.96,1152.33,2293.73,1207.99,2288.43,1221.53z"/>
		<path class="st37" d="M2274.4,1098.02c-7.91,36.35-21.59,87.77-37.01,99.58c-16.18-27.71-62.62-112.54-48.27-150.21
			c17.27-45.37,60.19-65.81,60.19-65.81S2262.91,1039,2274.4,1098.02z"/>
		<path class="st37" d="M2231.01,1285.97c-31.75,29.92-64.63,57.73-64.63,57.73s-15.03,4.59-8.48-17.53c0,0,36.25-66.6,51.81-86.26
			c4.45-5.61,9.04-10.74,13.35-15.2C2222.55,1241.7,2223.04,1270.54,2231.01,1285.97z"/>
		<path class="st3" d="M2268.21,1067.26c0,0-37.62-94.41-35.63-97.14c1.23-1.71,3.62-53.21,5.25-91.92
			c0.99-23.54,1.7-42.36,1.7-42.36s16.67,5.94,20.66,46.49c0.77,7.82,1.22,15.19,1.49,22.06c1.12,28.78-0.98,49.04,3.32,58.63
			c5.33,11.88,3.42,66.08,5.06,71.54C2271.69,1040.02,2280.17,1053.67,2268.21,1067.26z"/>
		<path class="st36" d="M2238.47,1004.35l-3-11.06c-21.12,9.14-83.21-4.22-83.21-4.22s-18.5,21.92-8.98,66.4
			c4.65,21.71,21.1,114.46,27.83,141.62c2.44,9.85,4.33,16.83,5.09,19.62c0.01,0.01,0.01,0.02,0.01,0.03
			c0.23,0.85,0.05,1.71-0.27,2.54c-2.86,7.08-5.02,14.34-6.59,21.66c-15.36,71.97,26.72,151.46,26.72,151.46l7.2-4.23
			c0,0,2.8-95.9,10.26-139.2c1.27-7.34,2.67-13.18,4.21-16.77c4.5-10.46,7.66-26.93,9.87-46.29c4.17-36.59,4.92-83.5,4.68-119.58
			C2233,1066.25,2238.47,1004.35,2238.47,1004.35z"/>
		<path class="st3" d="M2143.19,1016.08c-8.58-12.99,20.87-66.08,19.83-71.08c-2.07-9.86-6.91-20.79-11.67-30.61
			c-4.76-9.82-9.41-18.55-11.08-24.01c1.53-2.13,3.03-4.13,4.42-6.01c2.11-2.9,3.95-5.56,5.13-8.05c1.31-2.71,1.87-5.24,1.24-7.68
			c-0.48-1.85-1.14-3.69-1.93-5.5c-0.37-0.85-0.76-1.69-1.18-2.53c-4.38-8.78-10.94-15.93-10.94-15.93
			c10.37-6.65,26.71-10.04,26.86-9.54c1.21-0.4,2.29-0.69,3.15-0.91c0.6-0.15,1.21-0.3,1.82-0.44c2.06-0.49,4.13-0.92,5.92-1.25
			c3.73-3.74,8.18-17.58,6.84-37.98l1.8,0.24l30.21,4.08c0,0-0.1,9.45,0.42,18.29c0.41,6.92,1.21,13.48,2.72,14.91
			c2.34,0.19,3.75,0.33,3.75,0.33s0,0.01,0.02,0.02c0.01,0.02,0.03,0.04,0.05,0.07c1.7,0.14,3.27,0.29,4.7,0.45
			c0,0,0.12,0.01,0.34,0.03c2.65,0.3,4.85,0.63,6.64,0.95c0.13,0.03,0.25,0.06,0.37,0.07c5.16,0.95,6.91,1.84,6.91,1.84v0.09
			c-0.25,9.52,15.11,26.17,14.04,47.7c-0.04,0.81-7.86,57.25-7.82,58.09c0.63,16.07,8.5,61.33,8.5,61.33
			C2261.44,1017.06,2147.81,1029.45,2143.19,1016.08z"/>
		<path class="st5" d="M2171.14,722c-0.56-1.56-7.15-18.22-33.38-10.93c0,0,13.24-2.5,17.21,2.42c0,0-10.87-4.2-17.25,0.26
			c-6.37,4.46-6.63,18.17-5.38,22.26c1.24,4.09,9.31,16,14.16,15.7c1.83-0.11,3.76-0.84,5.44-1.71c-0.61,2.24-1.13,4.67-1.53,7.32
			c-3.66,24.52,13.56,41.93,21.61,36.88c5.16-3.24,9.77,5.85,9.77,5.85l40.7-61.43C2222.5,738.61,2189.35,703.42,2171.14,722z"/>
		<path class="st4" d="M2213.62,798.88c0,0-0.1,9.44,0.42,18.29c-16.73,0.55-26.5-14.15-30.63-22.37L2213.62,798.88z"/>
		<path class="st3" d="M2219.71,806.92c0,0-39.48,3.07-41.02-21.54c-1.54-24.62-7.67-40.8,17.48-43.81
			c25.14-3,30.63,6.08,33.14,14.18C2231.82,763.84,2229.94,805.48,2219.71,806.92z"/>
		<path class="st5" d="M2227.3,742.13c-6.56-7.03-11.08-5.12-13.53-2.74c-22.33-10.55-35.18,7.86-35.18,7.86
			c-1.56,17.83-13.68,28.73-13.68,28.73s7.48,4.01,23.82-1.28c4.99-1.62,9.3-5.5,12.88-10.11c-6.03,11.68-14.68,20.36-14.68,20.36
			c19.28-10.39,25.55-38.47,26.17-41.43c2.54,2.02,7.59,6.43,9.32,10.96c2.35,6.15,4.03,19,7.77,18.33
			C2230.19,772.8,2237.14,752.67,2227.3,742.13z"/>
		<path class="st2" d="M2243.25,1394.66h-61.27c0,0-2.29-9.77,1.73-16.42c3.56-5.88,1.37-9.88-0.17-14.88
			c2.78,1.14,6.1,2.95,10.05,2.72c3.05-0.18,7.84-2.42,10.67-4.06c2.64,3.01,12.37,16.66,15.9,19.2
			C2224.16,1384.09,2242.02,1383.07,2243.25,1394.66z"/>
		<path class="st2" d="M2152.18,1393.23l-23.06-56.77c0,0,8.19-5.8,15.87-4.58c6.79,1.08,9.38-1.44,12.9-5.72
			c-0.01,3,0.39,6.71,2.08,10.29c1.31,2.76,3.81,5.23,6.4,7.24c-1.79,3.58-9.4,18.85-10.42,23.08
			C2154.79,1371.56,2162.46,1387.72,2152.18,1393.23z"/>
		<path class="st9" d="M2245.75,941.72c-0.02-0.47,2.4-18.21,4.55-33.96c4.74-0.52,10.48-1.63,15.45-3.96
			c-0.27-6.87-4.85-65.67-29.56-68.98c-1.18-0.32-2.39-0.59-3.56-0.82c-0.11-0.02-0.24-0.04-0.37-0.07
			c-3.03-0.57-5.72-0.86-6.64-0.95c-0.22-0.02-0.34-0.03-0.34-0.03s7.37,20.92,7.22,23.38c-0.14,2.46-23.81,3.28-39.38,3.48
			c-15.44,0.2-24.13-25.63-24.27-26.03c-0.61,0.14-1.22,0.29-1.82,0.44c-0.87,0.22-21.51,3.37-30.02,10.45
			c0,0,6.55,7.14,10.94,15.92c0.42,0.84,0.81,1.68,1.18,2.53c0.79,1.8,1.44,3.64,1.93,5.5c0.63,2.44,0.07,4.97-1.24,7.68
			c-1.18,2.49-3.01,5.15-5.13,8.05c-1.38,1.88-2.88,3.88-4.42,6.01c0.57,1.88,1.49,4.15,2.65,6.7v0.01
			c2.22,4.89,5.3,10.86,8.42,17.3c4.75,9.82,9.6,20.75,11.67,30.61c1.05,5.01-28.41,58.09-19.82,71.08
			c1.37,3.95,12.26,5.65,26.73,5.73c34.5,0.18,89.4-8.88,84.33-18.75C2254.25,1003.05,2246.38,957.8,2245.75,941.72z"/>
		<path class="st2" d="M2169.92,1021.81c-14.47-0.07-25.36-1.78-26.73-5.73c-8.58-12.99,20.87-66.08,19.82-71.08
			c-2.06-9.86-6.91-20.79-11.67-30.61c-3.12-6.44-6.2-12.41-8.42-17.3v-0.01c1.22-4.81,1.93-7.61,1.93-7.61s31.35,36.45,38.54,53.66
			C2189.04,956.62,2175.87,1002.58,2169.92,1021.81z"/>
		<path class="st3" d="M2155.02,997.09l-6.2,10.75c-39.87-15.79-65.26-51.37-65.26-51.37c-1.39-20.2,8.06-43.43,19.38-63.46
			c1.88-3.32,3.8-6.55,5.74-9.66c8,6.84,19.19,15.79,29.84,22.31c-1.65,2.74-3.64,6.03-5.78,9.54
			c-8.84,14.57-20.27,33.24-21.75,34.72C2108.54,952.37,2155.02,997.09,2155.02,997.09z"/>
		<path class="st9" d="M2134.38,919.57c-19.63-1.29-34.1-26.83-34.1-26.83c15.33-27.09,36.73-48.07,36.73-48.07
			C2191.41,865.44,2143.25,913.71,2134.38,919.57z"/>
		<path class="st3" d="M2155.01,997.09c0,0,3.36-0.48,5.54-2.39c2.19-1.91,9.15-7.31,9.56-5.63c0.41,1.67-5.05,4.27-2.18,4.68
			c2.87,0.41,7.37-1.51,11.88-0.83c4.5,0.69,11.44,11.07,9.3,12.29c-2.13,1.23-9.92-2.87-11.97-1.43
			c-2.05,1.43-16.66,9.43-28.33,4.07C2137.15,1002.48,2155.01,997.09,2155.01,997.09z"/>
	</g>
	<g>
		<path class="st5" d="M1553.47,763.91c0,0-28.39-1.42-29.19-17.81c-0.8-16.38-24.25-28.33-17.46-41.48
			c8.33-16.13,0.73-31.64,11.25-42.48c11.58-11.95,26.22-5.46,33.95-12.42c7.72-6.96,21.85-13.38,35.77-4.78
			c13.93,8.6,24.56,3.97,33.71,12.25c10.11,9.15,6.28,20.67,14.62,26.93c7.65,5.73,4.53,21.4-1.91,34.13
			c-4.64,9.18,6.06,17.78-12.31,28.32c-7.64,4.39-5.99,15.43-29.2,17.34C1582.25,764.77,1559.57,759.88,1553.47,763.91z"/>
		<path class="st2" d="M1499.3,1394.66c0,0,0-11.5,1.64-15.32c1.64-3.82,7.65-19.39,7.65-19.39h23.48c0,0,4.37,14.2,4.64,18.84
			c0.27,4.64,0,15.87,0,15.87H1499.3z"/>
		<path class="st2" d="M1648.4,1394.66c0,0,0-11.5-1.64-15.32c-1.64-3.82-7.65-19.39-7.65-19.39h-23.48c0,0-4.37,14.2-4.64,18.84
			c-0.27,4.64,0,15.87,0,15.87H1648.4z"/>
		<path class="st10" d="M1554.32,749.38c0,0-0.83,25.6-4.1,37.07l-25.93,18.09l97.62,14.61l-23.28-32.17c0,0-7.03-34.32-3.34-47.02
			C1598.97,727.27,1554.32,749.38,1554.32,749.38z"/>
		<path class="st11" d="M1554.18,752.92c0-0.01,7.72,18.58,22.26,18.17c14.54-0.41,17.85-16.85,17.85-16.85L1554.18,752.92z"/>
		<path class="st10" d="M1574.77,763.91c-10.54-0.19-29.93-14.21-29.93-31.59v-27.11c0-6.34,4.42-11.54,9.83-11.54h40.2
			c5.41,0,9.83,5.19,9.83,11.54v25.58C1604.7,749.01,1586.86,764.13,1574.77,763.91z"/>
		<path class="st12" d="M1502.24,996.52c0,0,4.11,125.46-2.04,197.05c-6.14,71.59,0.04,171.21,0.04,171.21s19.65,10.83,40.95,0
			c0,0,23.36-138.3,23.21-171.21c-0.16-35.05,25.42-191.58,25.42-191.58L1502.24,996.52z"/>
		<path class="st12" d="M1647.55,1364.78c0,0-19.64,10.84-40.94,0c0,0-23.36-138.3-23.21-171.21c0.06-14.8-4.46-51.28-9.71-88.47
			c-7.18-50.88-15.72-103.1-15.72-103.1l90.99-5.68c0,0-7.5,125.68-1.36,197.26C1653.75,1265.16,1647.55,1364.78,1647.55,1364.78z"
			/>
		<path class="st6" d="M1631.81,793.06l0,0.05c-11.81-2.97-22.92-4.93-33.19-6.12c-9.06,12.03-15.56,14.83-23.85,18.1
			c-13.33-1.84-24.56-18.26-24.56-18.64c-14.52,1.49-24.31,4.15-28.29,5.39c-0.79,0.09-43.38,5.72-103.66,128.42
			c0,0,3.25,11.3,19.05,31c11.25,14.01,28.87,32.28,56.2,53.75c0,0,2.58-5.51,4.93-14.44c0,0-16.24-31.61-26.03-53.02
			c-4.75-10.42-7.98-18.41-7.05-19.18c1.76-1.46,21.41-18.52,35.92-31.13c-0.12,3.15-0.15,6.02-0.07,8.5
			c0.79,27.41,1.89,54.05-1.64,83.56c-4.65,38.77,3.22,38.09,3.22,38.09s10.58,2.07,25.35,4.03c13.35,1.79,30.12,3.48,45.55,3.48
			c35.39,0,74.18-7.51,74.18-7.51c11.17,0.14-3.13-69.48-5.22-111.36c-0.48-9.73-0.94-18.6-1.36-26.72
			c13.34,11.58,42.88,37.25,45.06,39.06c0.93,0.77-2.3,8.76-7.05,19.18c-9.78,21.41-26.03,53.02-26.03,53.02
			c2.35,8.92,4.93,14.44,4.93,14.44c27.33-21.47,44.95-39.74,56.2-53.75c15.81-19.7,19.05-31,19.05-31
			C1672.61,796.41,1631.81,793.06,1631.81,793.06z"/>
		<path class="st8" d="M1528.14,1021.42c-14.76-1.96-25.35-4.03-25.35-4.03s-7.86,0.69-3.22-38.09c3.53-29.51,2.42-56.15,1.64-83.56
			c-0.09-3.05-0.02-6.65,0.16-10.67c2.26,3.62,27.46,44.32,34.24,74.56C1540.56,981.71,1533.11,1007.69,1528.14,1021.42z"/>
		<path class="st15" d="M1583.4,1193.57c0.06-14.8-4.46-51.28-9.71-88.47c5.45-22.22,18.72-43.6,18.72-43.6
			C1609.21,1108.6,1583.4,1193.57,1583.4,1193.57z"/>
		<path class="st10" d="M1495.2,992.14c0,0,14.74-13.65,20.75-6.01c6.01,7.65,7.1,19.66,2.46,18.84c-4.64-0.82-14.2-5.19-15.56-3
			c-1.37,2.18-7.48,6.36-9.34,3.04C1491.65,1001.7,1495.2,992.14,1495.2,992.14z"/>
		<path class="st10" d="M1498.44,990.58c-2.35,8.92-4.93,14.43-4.93,14.43c-27.33-21.47-44.95-39.74-56.2-53.75
			c8.48-0.63,20.86-3.66,35.1-13.71C1482.2,958.97,1498.44,990.58,1498.44,990.58z"/>
		<path class="st10" d="M1656.52,992.14c0,0-14.75-13.65-20.75-6.01c-6.01,7.65-7.1,19.66-2.46,18.84c4.64-0.82,14.2-5.19,15.56-3
			c1.37,2.18,7.48,6.36,9.34,3.04C1660.07,1001.7,1656.52,992.14,1656.52,992.14z"/>
		<path class="st10" d="M1653.28,990.58c2.35,8.92,4.93,14.43,4.93,14.43c27.33-21.47,44.95-39.74,56.2-53.75
			c-8.48-0.63-20.86-3.66-35.1-13.71C1669.52,958.97,1653.28,990.58,1653.28,990.58z"/>
		<path class="st8" d="M1686.36,918.38c-2.19-1.82-31.93-27.66-45.2-39.19c0,0,13.25-9.93,21.44,4.55
			C1670.79,898.21,1686.36,918.38,1686.36,918.38z"/>
		<path class="st8" d="M1733.46,920.27c0,0-3.24,11.3-19.05,31C1696.11,951.01,1733.46,920.27,1733.46,920.27z"/>
		<path class="st5" d="M1544.84,716.21c0,0,7.31-22.32,31.27-18.84c23.96,3.48,26.04,8.6,28.58,14.54
			c2.55,5.94,7.46-21.71,7.46-21.71l-28.26-8.4c0,0-34.2,3.89-36.66,9.63c-2.46,5.73-2.46,5.73-2.46,5.73L1544.84,716.21z"/>
		<g>
			<path class="st5" d="M1560.11,732.86c-4.13,0-12.41-0.92-13.86-8.11c-0.44-2.17-0.03-4.11,1.19-5.59
				c1.34-1.63,3.54-2.57,6.05-2.57h12.72c2.42,0,4.11,0.69,5.02,2.07c1.54,2.31,0.36,5.77-0.22,7.15c-1.98,4.73-4.7,6.94-8.58,6.95
				C1562.27,732.77,1561.39,732.86,1560.11,732.86z M1553.49,717.42c-2.26,0-4.23,0.83-5.41,2.27c-1.05,1.28-1.4,2.98-1.01,4.9
				c0.74,3.69,3.51,6.04,8.23,7c3.6,0.73,7.02,0.33,7.06,0.33l0.05,0c3.5,0,5.99-2.04,7.83-6.43c0.41-0.98,1.64-4.34,0.29-6.37
				c-0.75-1.12-2.2-1.69-4.32-1.69H1553.49z"/>
		</g>
		<g>
			<path class="st5" d="M1589.44,732.86c-1.28,0-2.16-0.09-2.32-0.11c-3.87-0.01-6.59-2.22-8.58-6.95
				c-0.58-1.38-1.76-4.84-0.22-7.15c0.91-1.37,2.6-2.07,5.02-2.07h12.72c2.51,0,4.71,0.94,6.05,2.57c1.21,1.48,1.62,3.42,1.19,5.59
				C1601.86,731.94,1593.58,732.86,1589.44,732.86z M1583.35,717.42c-2.12,0-3.58,0.57-4.32,1.69c-1.35,2.03-0.12,5.39,0.29,6.37
				c1.84,4.39,4.32,6.43,7.83,6.43l0.05,0c0.04,0,3.46,0.4,7.05-0.33c4.72-0.96,7.49-3.32,8.24-7c0.39-1.92,0.04-3.62-1.01-4.9
				c-1.18-1.44-3.15-2.27-5.41-2.27H1583.35z"/>
		</g>
		<g>
			<path class="st5" d="M1570.22,722.47c-0.19,0-0.37-0.11-0.46-0.29c-0.11-0.25,0-0.55,0.25-0.66c0.21-0.1,5.2-2.33,9.62,0.01
				c0.24,0.13,0.34,0.43,0.21,0.68c-0.13,0.24-0.43,0.34-0.68,0.21c-3.99-2.11-8.68-0.01-8.73,0.01
				C1570.36,722.45,1570.29,722.47,1570.22,722.47z"/>
		</g>
	</g>
	<g>
		<g>
			<path class="st41" d="M1489.47,1011.7l-11.64,2.15c0,0-31.84-49.09-32.76-64.06c-0.88-14.29-29.58-76.85,4.02-115.91
				c1.51-1.77,3.16-3.49,4.95-5.16c0.06-0.07,0.13-0.13,0.19-0.18c0,0,0.06,0.09,0.17,0.27c0.68,1.14,3.35,5.96,6.48,16.62
				c4.9,16.66,10.95,47.6,12.38,101.03C1473.26,946.46,1481.07,992.2,1489.47,1011.7z"/>
			<path class="st41" d="M1489.47,1011.7c0,0,12.47,14.07,12.85,19.77c0.38,5.7-4.55,12.88-10.09,14.11
				c-5.54,1.23-2.08-7.57-2.91-11.1c-0.83-3.53-4.45-8.89-4.24-7.3c0.22,1.6,2.43,7.88,1.75,8.89c-0.68,1-2.47,1.17-3.15-2.19
				c-0.68-3.36-6.26-7.27-5.17-10.88c1.1-3.6,0.2-6.38-1.31-11.21c-1.51-4.83-4.04-10.63-4.04-10.63l8.99-1.92L1489.47,1011.7z"/>
		</g>
		<path class="st5" d="M1405.3,757.6c0,0-0.28,5.94,3.28,7.1c3.56,1.16-3.67,13.98-3.1,22.63c0.57,8.65,4.4,12.13,4.4,12.13
			s-1.84-4.76-0.81-7.7c0,0-0.16,6.12,4.31,9.21c4.47,3.09,3.27,5.76,3.27,5.76s10.1-3.03,10.39-10.6c0,0,0.43,3.42,0.08,4.84
			c0,0,8.72-6.55,9.14-14.1c0.42-7.55-6.87-13.92-10.19-14.03s-10.72-6.63-10.52-9.09S1405.3,757.6,1405.3,757.6z"/>
		<path class="st42" d="M1433.22,715.18c-5.88-8.93-29.22-3.93-52.14,11.16c-22.92,15.09-36.73,34.56-30.85,43.49
			c5.88,8.93,29.22,3.93,52.14-11.16S1439.1,724.11,1433.22,715.18z"/>
		<path class="st9" d="M1483.62,1373.92l-12.36,4.6c0,0-53.67-74.44-60.28-139.94c-1.18-11.69-0.79-23.02,1.77-33.48
			c0,0-0.52-3-1.44-8.29c-0.42-2.47-0.95-5.45-1.54-8.86c-1.75-10-4.15-23.68-6.89-39.25c-6.32-35.85-14.5-81.67-20.85-115.35
			l3.33-1.07l36.03-11.62l7.45-23.65l26.83-7.06c0,0,5.99,11.72,11.35,67.1c0.99,7.26,1.89,15.27,2.56,23.96
			c2.09,26.51,2.24,59.4-2.55,97c-1.23,9.62-2.79,19.56-4.71,29.77c-1.41,7.49-1.62,17.68-1.03,29.4
			C1463.97,1290.71,1483.62,1373.92,1483.62,1373.92z"/>
		<path class="st2" d="M1469.56,1081l-58.25,115.81c-0.42-2.47-0.95-5.45-1.54-8.86c-1.75-10-4.15-23.68-6.89-39.25
			c-6.32-35.85-14.5-81.67-20.85-115.35l3.33-1.07l36.03-11.62l7.45-23.65l32.04-9.53c0,0,0.77,14.19,6.13,69.57
			C1467.98,1064.3,1468.88,1072.31,1469.56,1081z"/>
		<path class="st5" d="M1420.32,716.19l-41.19,62.5c0,0-4.71-9.23-9.94-5.92c-8.16,5.16-25.69-12.49-22.04-37.41
			c0.24-1.63,0.53-3.18,0.84-4.65c8.22-11.84,17.35-25.03,23.9-34.29C1390.81,685,1420.32,716.19,1420.32,716.19z"/>
		<path class="st3" d="M1438.42,842.45c-5.76,5.28-13.25,10.01-22.95,13.68c-36.38,13.78-55.08-16-63.45-37.05
			c4.72-3.63,9.45-4.93,12.19-5.64c2.67-0.69,5.5-1.29,7.84-1.73c3.78-3.8,8.26-17.88,6.86-38.59l1.83,0.23l30.7,4.08
			c0,0-0.08,9.59,0.47,18.58c0.43,7.03,1.26,13.69,2.8,15.14c2.38,0.19,3.81,0.33,3.81,0.33s0,0.01,0.02,0.03
			C1419.02,812.09,1429.53,825.04,1438.42,842.45z"/>
		<path class="st4" d="M1411.45,777.43c0,0-0.08,9.58,0.47,18.58c-17,0.6-26.95-14.3-31.17-22.65L1411.45,777.43z"/>
		<path class="st3" d="M1417.66,785.58c0,0-40.1,3.22-41.72-21.79c-1.62-25-7.88-41.43,17.65-44.54
			c25.53-3.11,31.13,6.11,33.7,14.32C1429.86,741.79,1428.05,784.1,1417.66,785.58z"/>
		<path class="st5" d="M1425.21,719.75c-6.68-7.13-11.27-5.18-13.75-2.75c-22.71-10.67-35.71,8.07-35.71,8.07
			c-1.54,18.11-13.83,29.21-13.83,29.21s7.6,4.05,24.2-1.36c5.07-1.65,9.43-5.61,13.06-10.3c-6.1,11.88-14.86,20.71-14.86,20.71
			c19.56-10.6,25.86-39.13,26.48-42.15c2.59,2.05,7.73,6.52,9.5,11.11c2.41,6.24,4.14,19.29,7.93,18.6
			C1428.22,750.91,1435.23,730.44,1425.21,719.75z"/>
		<path class="st2" d="M1522.29,1394.66h-62.24c0,0-2.33-9.93,1.76-16.68c3.62-5.98,2.23-9.38-0.45-14.33
			c2.82,1.15,6.47,2.2,10.48,1.97c3.1-0.18,6.38-1.59,9.26-3.26c2.68,3.05,14.15,16.05,17.73,18.63
			C1502.91,1383.92,1521.04,1382.88,1522.29,1394.66z"/>
		<path class="st43" d="M1346.3,747.67c0,0-18.65-37.12,7.41-51.79c26.06-14.67,45.13-8.91,59.47,9.03L1346.3,747.67z"/>
		<path class="st36" d="M1464.98,848.98c-4.99-24.97-20.45-32.12-20.45-32.12s-2.57-3.89-16.93-4.51c-2.24-0.09-4.68-0.56-7.4-0.77
			c-0.54-0.04-1.1-0.08-1.67-0.12c0,0,0,0.01,0.02,0.03c0.55,0.84,15.04,23.12,14.23,29.11c-0.82,6.1-53.57,4.01-57.39,0.93
			c-3.07-2.48-8.39-19.03-10.37-25.5c-0.5-1.61-0.8-2.6-0.8-2.6s-18.42,3.21-27.08,10.39c0,0,6.63,7.27,11.06,16.21
			c0.42,0.85,0.82,1.7,1.19,2.57c0.79,1.83,1.45,3.71,1.93,5.59c0.63,2.49,0.06,5.05-1.28,7.8c-1.21,2.52-3.08,5.23-5.23,8.16
			c-1.42,1.91-2.95,3.93-4.5,6.09c1.09,3.64,2.52,8,4.11,12.93c3.26,10.15,7.13,22.69,9.9,36.19c1.04,5.09,0.9,10.32-0.35,15.31
			c-0.49,1.99-1.17,3.94-2.01,5.83c-1.31,2.95-1.64,7.01-3.12,10.82c-6.03,15.61-12.98,35.98-6.01,46.62
			c4.65,13.6,112.36-19.42,105.11-33.68c0,0,4.29-74.81,7.26-97.98c0.1-0.85,0.18-1.67,0.22-2.5c0.07-1.3,0.06-2.58,0-3.84
			C1464.73,855.7,1464.98,848.98,1464.98,848.98z"/>
		<path class="st44" d="M1451.28,700.83c-5.37-8.6-24.13-7.21-46.78,2.06c-8.85,3.62-18.28,8.45-27.75,14.35
			c-11.77,7.34-22.02,15.38-30.07,23.24c-14.99,14.66-22.31,28.71-17.46,36.49c5.4,8.64,24.33,7.19,47.15-2.21
			c-1.86-2.02-4.46-3.72-7.19-1.99c-2.8,1.77-6.73,0.85-10.51-2.15c-2.79-0.46-4.86-1.58-5.99-3.39c-0.85-1.35-1.11-3-0.86-4.87
			c1.16-8.68,13.46-22.15,31.12-33.17c13.57-8.46,27.05-13.44,36.34-14.04c5.4-0.35,9.38,0.78,11.13,3.58
			c1.51,2.42,1.17,5.79-0.68,9.68c1.02,4.08,1.01,8.41,0.61,12.17C1447.67,724.79,1456.51,709.2,1451.28,700.83z"/>
		<path class="st37" d="M1390.66,942.75c-15.51,4.97-30.62,7.11-42.6,7.97c1.48-3.81,2.57-7.26,3.88-10.21
			c0.84-1.89,1.51-3.84,2.01-5.83c1.25-4.99,1.39-10.22,0.35-15.31c-2.77-13.5-10.12-36.53-13.38-46.68
			c8.7-19.41,17.7-8.82,17.7-8.82s26.3,11.8,37.5,33.54C1407.31,919.16,1404.05,938.46,1390.66,942.75z"/>
		<path class="st9" d="M1357.09,814.92c0,0,25.05,16.01,31.45,49.75l7.58-2.41c0,0-2.93-24.09-31.91-48.83L1357.09,814.92z"/>
		<path class="st9" d="M1445.56,865.53l-7.93,0.52c1.59-29.26-13.1-49.24-17.44-54.47c2.72,0.22,5.19,0.48,7.4,0.77
			C1448.36,842.41,1445.56,865.53,1445.56,865.53z"/>
		<path class="st9" d="M1455.4,992.36l5.63-2.42l-5.53-83.85c0,0-5.37-38.13-5.45-44.79c-0.08-6.66-5.46-9.91-5.46-9.91
			s-39.49,2.08-50.62,2.71c-11.13,0.63-10.01,6.96-10.01,6.96s4.85,20.26,5.34,22.34c7.49,31.84-35.35,51.29-35.35,51.29
			s-6.95,17.99-12.34,35.21c-9.24,29.54-0.99,71.92-0.99,71.92c1.4,22.51,3.97,118.16,6.64,146.46c0.97,10.26,1.81,17.56,2.16,20.47
			c0.01,0.01,0.01,0.02,0.01,0.03c0.11,0.89-0.21,1.73-0.66,2.51c-3.94,6.69-7.2,13.65-9.88,20.77
			c-26.26,69.99,4.05,156.17,4.05,156.17l7.86-3.17c0,0,17.25-95.92,31.26-138.29c2.38-7.19,4.66-12.84,6.75-16.21
			c6.09-9.83,11.75-25.9,16.88-45.01c9.7-36.13,17.51-83.14,22.71-119.42c0.72,0.03,8.19-50.85,26.91-73.28
			C1455.47,992.64,1455.5,992.48,1455.4,992.36z"/>
		<g>
			<g>
				<path class="st37" d="M1388.23,861.73c-0.55-1.75,0.41-3.62,2.16-4.18c1.75-0.56,3.62,0.41,4.18,2.16
					c0.56,1.75-0.41,3.62-2.16,4.18C1390.65,864.45,1388.79,863.48,1388.23,861.73z"/>
				<path class="st36" d="M1388.8,861.55c-0.56-1.75,0.41-3.62,2.16-4.18c1.75-0.56,3.62,0.41,4.18,2.16
					c0.55,1.75-0.41,3.62-2.17,4.18C1391.22,864.27,1389.35,863.3,1388.8,861.55z"/>
			</g>
			<path class="st9" d="M1389.91,860.54c0-0.27,0.22-0.48,0.48-0.48c0.27,0,0.48,0.22,0.48,0.48c0,0.27-0.22,0.48-0.48,0.48
				C1390.12,861.03,1389.91,860.81,1389.91,860.54z"/>
			<path class="st9" d="M1393.06,860.55c0-0.27,0.22-0.48,0.48-0.48s0.48,0.22,0.48,0.48c0,0.27-0.22,0.48-0.48,0.48
				S1393.06,860.81,1393.06,860.55z"/>
		</g>
		<g>
			<g>
				<path class="st37" d="M1437.19,857.51c-0.56-1.75,0.41-3.62,2.16-4.18c1.75-0.56,3.62,0.41,4.18,2.16
					c0.56,1.75-0.41,3.62-2.16,4.18C1439.62,860.23,1437.75,859.26,1437.19,857.51z"/>
				<path class="st36" d="M1437.76,857.33c-0.56-1.75,0.41-3.62,2.16-4.18c1.75-0.56,3.62,0.41,4.18,2.16
					c0.56,1.75-0.41,3.62-2.16,4.18C1440.19,860.05,1438.31,859.08,1437.76,857.33z"/>
			</g>
			<path class="st9" d="M1438.87,856.32c0-0.27,0.22-0.48,0.48-0.48c0.27,0,0.48,0.22,0.48,0.48c0,0.27-0.22,0.48-0.48,0.48
				C1439.08,856.8,1438.87,856.58,1438.87,856.32z"/>
			<path class="st9" d="M1442.02,856.32c0-0.27,0.22-0.48,0.48-0.48c0.27,0,0.48,0.22,0.48,0.48c0,0.27-0.22,0.48-0.48,0.48
				S1442.02,856.59,1442.02,856.32z"/>
		</g>
		<path class="st5" d="M1351.83,762.36c0,0-0.28,5.94,3.29,7.1c3.56,1.16-3.67,13.98-3.1,22.63s4.4,12.13,4.4,12.13
			s-1.84-4.76-0.81-7.7c0,0-0.16,6.12,4.31,9.21c4.47,3.09,3.27,5.76,3.27,5.76s10.1-3.03,10.39-10.61c0,0,0.43,3.43,0.08,4.84
			c0,0,8.72-6.55,9.14-14.1c0.42-7.55-6.87-13.92-10.19-14.03c-3.32-0.12-10.72-6.63-10.52-9.09
			C1362.28,766.04,1351.83,762.36,1351.83,762.36z"/>
		<path class="st3" d="M1351.88,961.25c0,0,12,7.57,13.76,7.51c4.12-0.15,12.25-9.15,19.02-4.99c6.77,4.16,13.4,11.09,11.05,13.86
			c-2.34,2.77-10.29-0.5-14.1,0.06c-3.81,0.55-13.21,5.23-19.84,3.03c-6.38-2.11-20.15-10.81-20.15-10.81L1351.88,961.25z"/>
		<path class="st3" d="M1337.13,823.82c0,0-44.68,52.77-59.46,82.49c0,0,17.78,38.71,75.41,70.15c0,0,2.56-0.56,6.47-3.35
			c6.1-4.36-0.66-7.54-1.99-8.41c-14.62-9.47-40.17-50.27-40.91-53.81c-0.74-3.54,32.02-35.29,41.97-47.02
			C1368.57,852.13,1352.6,817.77,1337.13,823.82z"/>
		<path class="st45" d="M1405.29,771.61c0,0,5.98,3.62,10.23,3.2c4.21-0.42,6.51-5.5,6.51-5.5S1413.86,768.11,1405.29,771.61z"/>
		<path class="st36" d="M1337.13,823.82l-20.07,19.61c0,0,4.58,28.95,34.96,32.73c0,0,24.93-19.96,10.04-40.75
			C1347.16,814.62,1337.13,823.82,1337.13,823.82z"/>
		<path class="st3" d="M1365.64,968.76c0,0,0.68-2.92,3.26-4.06c2.58-1.15,4.98-3.65,5.19-2.92c0.21,0.73,0.37,1.95-0.96,3.43
			C1371.79,966.68,1369.51,969.15,1365.64,968.76z"/>
		<path class="st2" d="M1388.66,1394.66h-62.24c0,0-1.49-9.49,1.76-16.68c3.12-6.91,7.99-10.04,6.83-18.4
			c3.96,4.07,10.4,8.63,19.4,7.42c1.1,1.79,7.12,11.35,10.8,14C1369.27,1383.92,1387.41,1382.88,1388.66,1394.66z"/>
	</g>
	<g>
		<g>
			<path class="st2" d="M2336.7,1393.69l-1.19-352.23c0,0-2.69-25.38-24.82-25.52c-23.61-0.14-25.12,25.22-25.12,25.22
				s0.33,2.2,2.75,2.21c2.54,0.01,2.97-2.18,2.97-2.18s1.16-19.55,19.37-19.44c17.06,0.1,19.13,19.67,19.13,19.67l-2.09,352.21
				L2336.7,1393.69z"/>
			<path class="st2" d="M2324.66,1393.62l14.69,0.09l-1.22-15.37c0,0,0.14-2.13-2.83-2.27c-2.76-0.13-8.2-0.55-8.73,1.11
				C2326.11,1378.64,2324.66,1393.62,2324.66,1393.62z"/>
		</g>
		<path class="st3" d="M2310.62,997.28l-1.03,5.03c0,0-24.9-0.24-30.88,26.41c0,0-1.65,11.09,6.37,8.77
			c8.02-2.32,6.81-8,18.16-11.03c11.36-3.04,18.75-5.37,20.52-13.61l1.91-9.17L2310.62,997.28z"/>
		<path class="st36" d="M2399.97,779.42c0,0-6.74,25.88-12.56,49.54c-2.34,9.53-4.54,18.7-6.09,25.67
			c-1.58,7.16-2.48,12.01-2.15,12.56c4.89,8.05-4.42,56.89-11.67,74.6c-0.64,1.57-1.52,3.41-2.57,5.45
			c-10.1,19.51-36.9,57.76-36.9,57.76s-7.5,0.74-12.39-1.14c-4.08-1.58-6.85-6.59-6.85-6.59c2.4-3.81,12.29-48.94,24.81-74.2
			c5.36-10.81,13.75-111.32,24.08-124.79C2366.29,787.03,2399.97,779.42,2399.97,779.42z"/>
		<path class="st37" d="M2379.17,867.19c4.89,8.05-4.42,56.89-11.67,74.6c-0.64,1.57-1.52,3.41-2.57,5.45
			c-9.29-42.25,6.88-101.94,6.88-101.94c3.94,1.59,7.07,4.86,9.51,9.33C2379.74,861.8,2378.83,866.65,2379.17,867.19z"/>
		<path class="st46" d="M2445.38,1355.54c0,0,2.31,38.21-4.91,38.7c-0.96,0.06-36.58-0.15-36.58-0.15l-45.95-0.27
			c0,0,0.84-11.21,14.14-13.45c13.31-2.24,35.61-11.45,43.76-28.97C2424.44,1332.97,2445.38,1355.54,2445.38,1355.54z"/>
		<path class="st23" d="M2514.49,1355.95c0,0,2.31,38.21-4.91,38.7c-0.96,0.06-36.58-0.15-36.58-0.15l-45.95-0.27
			c0,0,0.84-11.21,14.15-13.45c13.31-2.24,35.61-11.45,43.76-28.96C2493.55,1333.38,2514.49,1355.95,2514.49,1355.95z"/>
		<path class="st9" d="M2448.11,1263.5c1.04,16.16,3.22,36.94,2.28,55.65c-1.31,26.17-2.26,48.24-2.26,48.24
			c-17.29,5.76-48.91-1.54-48.91-1.54s-10.84-66.21-19.78-119.07c-4.01-23.68-7.33-44.17-8.56-53.84
			c-3.98-31.26,5.6-197.31,5.6-197.31s46.87-29.65,66.07-14.11c19.2,15.54,30.98,30.69-1.11,199.52
			C2439.01,1193.84,2445.79,1227.31,2448.11,1263.5z"/>
		<path class="st2" d="M2448.11,1263.5c1.04,16.16,2.96,42.01,2.03,60.73c-16.13-17.28-47.91-53.71-70.7-77.45
			c-4.01-23.68-7.33-44.17-8.56-53.84c-3.98-31.26,5.6-197.31,5.6-197.31s46.87-29.65,66.07-14.11
			c19.2,15.54,30.98,30.69-1.11,199.52C2439.01,1193.84,2445.79,1227.31,2448.11,1263.5z"/>
		<path class="st9" d="M2418.66,999.25c0,0,3.21,166.29,9.57,197.16c6.37,30.87,39.73,172.19,39.73,172.19s32.04,3.11,48.84-3.97
			c0,0-0.68-65.36-6.13-103.8c-5.1-35.9-14.42-68.76-12.98-81.71c19.02-170.79,6.11-184.99-14.23-199.01
			C2463.11,966.09,2418.66,999.25,2418.66,999.25z"/>
		<path class="st3" d="M2481.94,1014.18c0,0-11.24,22.22,10.01,39.38c0,0,9.22,6.39,10.69-1.83c1.47-8.22-0.19-5.36,2.12-16.89
			c2.3-11.53-0.48-23.48-7.09-28.71L2481.94,1014.18z"/>
		<path class="st3" d="M2389.93,741.69c0,0,12.71,19.56,10.04,37.73l18.7,45.82l34.54-52.12c0,0-17.96-19.79-24.55-46.66
			L2389.93,741.69z"/>
		<path class="st3" d="M2384.21,758.28c0,0,46.67,2.3,47.69-25.72c1.02-28.02,13.74-46.59-21.16-49.26
			c-28.7-2.2-38.32,9.72-40.93,18.99C2367.19,711.56,2366.92,756.68,2384.21,758.28z"/>
		<path class="st36" d="M2497.02,1007.73c-10.04,0.87-23.85,1.95-40.61,2.9c-3.35,0.19-6.81,0.38-10.39,0.56
			c-50.6,2.53-70.66-5.78-70.66-5.78s-1.33-1.09-0.88-7.03c2.38-30.58,8.93-39.58,8.18-45.4c-1.68-13.08-32.75-119.89-32.75-119.89
			s-0.41-33.69,37.14-49.27c3.87-1.61,8.14-3.02,12.85-4.19c1.62,4.37,6.07,11.68,17.58,10.4c17.02-1.88,29.19-11.83,34.41-16.95
			c0.94,0,1.31,0.04,1.31,0.04c1.25,3.59,2.21,7.33,3.07,11.13c2.99,13.26,4.71,27.2,12.77,37.66
			c7.96,10.33,14.76,20.51,20.56,30.46c4.83,8.28,8.96,16.41,12.48,24.32C2534.82,950.18,2508.83,1006.69,2497.02,1007.73z"/>
		<path class="st37" d="M2497.02,1007.73c-10.04,0.87-23.85,1.95-40.61,2.9c-4.4-82.37,29.62-161.25,29.62-161.25
			c1.26,0.89,2.45,1.89,3.58,3c5.81,5.71,9.83,14.16,12.48,24.32C2511.87,914.09,2503.14,974.7,2497.02,1007.73z"/>
		<path class="st47" d="M2369.32,731.46c0,0-9.3,36,6.09,41.17c15.39,5.17,56.36,1.34,56.61-42.86c0,0-21.56,12.69-31.82,12.3
			c-10.26-0.39-16.85-6.35-26.36-1.78C2373.83,740.3,2370.36,740.04,2369.32,731.46z"/>
		<path class="st36" d="M2453.21,773.12c0,0,32.63,0.93,49.74,23.46c13.11,17.27,26.53,109.59,26.45,123.48
			c-0.08,13.89-15.41,90.45-23.79,98.73c0,0-5.4,1.36-12.58-0.08c-7.63-1.52-12.1-5.96-12.1-5.96s4.65-85.31,4.7-93.31
			c0.07-11.59-35.74-82.74-35.74-82.74S2431.29,802.83,2453.21,773.12z"/>
		<path class="st47" d="M2429.94,692.13c-0.77-2.87-4.28-4.39-4.28-4.39c-26.23-11.61-45.51,0.81-45.51,0.81
			c16.24-21.54,55.11-16.76,63.19,2.8c13.19,31.94-11.32,38.43-11.32,38.43s-24.37-10.41-10.15-23.2c4.71-4.24,7-8.01,7.77-11.31
			l0,0l0,0C2429.9,694.16,2429.99,693.12,2429.94,692.13z"/>
	</g>
	<g>
		<path class="st2" d="M413.47,1394.66c0,0,0-11.5,1.64-15.32c1.64-3.82,7.65-19.39,7.65-19.39h23.48c0,0,4.37,14.2,4.64,18.84
			c0.27,4.64,0,15.87,0,15.87H413.47z"/>
		<path class="st2" d="M562.57,1394.66c0,0,0-11.5-1.64-15.32c-1.64-3.82-7.65-19.39-7.65-19.39H529.8c0,0-4.37,14.2-4.64,18.84
			c-0.27,4.64,0,15.87,0,15.87H562.57z"/>
		<path class="st3" d="M468.49,749.38c0,0-0.83,25.6-4.1,37.07l-25.93,18.09l97.62,14.61l-23.28-32.17c0,0-7.03-34.32-3.34-47.02
			C513.14,727.27,468.49,749.38,468.49,749.38z"/>
		<path class="st4" d="M468.35,752.92c0-0.01,7.72,18.58,22.26,18.17c14.54-0.41,17.85-16.85,17.85-16.85L468.35,752.92z"/>
		<path class="st5" d="M459.67,737.87c0,0-4.7-23.44-7.97-30.54c-3.28-7.1-6.01-38.78,30.31-40.41c0,0,13.93,1.64,21.57-3
			c0,0,0,4.64-1.91,6.28c0,0,12.56-3,22.39,7.92c9.83,10.92-6.55,49.15-5.73,58.16L459.67,737.87z"/>
		<path class="st3" d="M518.87,705.21v25.58c0,4.27-0.98,8.38-2.64,12.16h-0.01c-2.87,6.52-7.75,12.06-13.09,15.8
			c-4.74,3.33-9.83,5.24-14.18,5.16c-3.79-0.08-8.71-1.93-13.48-5.08c-6.42-4.25-12.53-10.86-15.14-18.65l-0.04-0.12l-0.1-0.32
			c-0.75-2.38-1.18-4.86-1.18-7.42v-27.11c0-6.34,4.42-11.53,9.83-11.53h40.19C514.44,693.68,518.87,698.87,518.87,705.21z"/>
		<path class="st5" d="M459.01,719.69c0,0,0.05-16.29,12.96-18.79c12.9-2.5,41.78,7.94,45.88-3.94c4.1-11.88-55.82-11.67-58.83-4.1
			C456,700.44,459.01,719.69,459.01,719.69z"/>
		<path class="st9" d="M416.41,996.52c0,0,4.11,125.46-2.03,197.05c-6.14,71.59,0.04,171.21,0.04,171.21s19.65,10.83,40.95,0
			c0,0,23.36-138.3,23.21-171.21c-0.16-35.05,25.42-191.58,25.42-191.58L416.41,996.52z"/>
		<path class="st9" d="M561.72,1364.78c0,0-19.64,10.84-40.94,0c0,0-23.36-138.3-23.21-171.21c0.07-14.8-4.46-51.28-9.71-88.47
			c-7.18-50.88-15.72-103.1-15.72-103.1l90.99-5.68c0,0-7.5,125.68-1.36,197.26C567.91,1265.16,561.72,1364.78,561.72,1364.78z"/>
		<path class="st37" d="M442.31,1021.42c-14.76-1.96-25.35-4.03-25.35-4.03s-7.86,0.69-3.22-38.09c3.53-29.51,2.42-56.15,1.64-83.56
			c-0.09-3.05-0.02-6.65,0.16-10.67c2.26,3.62,27.46,44.32,34.24,74.56C454.73,981.71,447.28,1007.69,442.31,1021.42z"/>
		<path class="st36" d="M545.98,793.06l0,0.05c-11.81-2.97-22.92-4.93-33.19-6.12c-9.06,12.03-15.56,14.83-23.85,18.1
			c-13.33-1.84-24.56-18.26-24.56-18.64c-14.52,1.49-24.31,4.15-28.29,5.39c-0.79,0.09-43.38,5.72-103.66,128.42
			c0,0,3.24,11.3,19.05,31c11.25,14.01,28.87,32.28,56.2,53.75c0,0,2.58-5.51,4.93-14.44c0,0-16.25-31.61-26.03-53.02
			c-4.75-10.42-7.98-18.41-7.05-19.18c1.76-1.46,21.41-18.52,35.92-31.13c-0.12,3.15-0.15,6.02-0.07,8.5
			c0.79,27.41,1.89,54.05-1.64,83.56c-4.64,38.77,3.22,38.09,3.22,38.09s10.58,2.07,25.35,4.03c13.35,1.79,30.12,3.48,45.55,3.48
			c35.39,0,74.18-7.51,74.18-7.51c11.17,0.14-3.13-69.48-5.22-111.36c-0.48-9.73-0.93-18.6-1.35-26.72
			c13.34,11.58,42.88,37.25,45.06,39.06c0.93,0.77-2.3,8.76-7.05,19.18c-9.78,21.41-26.03,53.02-26.03,53.02
			c2.35,8.92,4.93,14.44,4.93,14.44c27.33-21.47,44.95-39.74,56.2-53.75c15.81-19.7,19.05-31,19.05-31
			C586.78,796.41,545.98,793.06,545.98,793.06z"/>
		<path class="st2" d="M497.57,1193.57c0.07-14.8-4.46-51.28-9.71-88.47c5.45-22.22,18.72-43.6,18.72-43.6
			C523.38,1108.6,497.57,1193.57,497.57,1193.57z"/>
		<path class="st3" d="M409.37,992.14c0,0,14.75-13.65,20.75-6.01c6.01,7.65,7.1,19.66,2.46,18.84c-4.64-0.82-14.2-5.19-15.56-3
			c-1.37,2.18-7.48,6.36-9.34,3.04C405.82,1001.7,409.37,992.14,409.37,992.14z"/>
		<path class="st3" d="M412.61,990.58c-2.35,8.92-4.93,14.43-4.93,14.43c-27.33-21.47-44.95-39.74-56.2-53.75
			c8.48-0.63,20.86-3.66,35.1-13.71C396.37,958.97,412.61,990.58,412.61,990.58z"/>
		<path class="st3" d="M570.69,992.14c0,0-14.75-13.65-20.75-6.01c-6.01,7.65-7.1,19.66-2.46,18.84c4.64-0.82,14.2-5.19,15.56-3
			c1.37,2.18,7.48,6.36,9.34,3.04C574.24,1001.7,570.69,992.14,570.69,992.14z"/>
		<path class="st3" d="M567.44,990.58c2.35,8.92,4.93,14.43,4.93,14.43c27.33-21.47,44.95-39.74,56.2-53.75
			c-8.48-0.63-20.86-3.66-35.1-13.71C583.69,958.97,567.44,990.58,567.44,990.58z"/>
		<path class="st5" d="M503.12,747.48v11.27c-4.74,3.33-9.83,5.24-14.18,5.16c-3.79-0.08-8.71-1.93-13.48-5.08v-11.35
			c0-6.29,5.15-11.44,11.45-11.44h4.77C497.97,736.04,503.12,741.19,503.12,747.48z"/>
		<path class="st37" d="M600.53,918.38c-2.19-1.82-31.93-27.66-45.2-39.19c0,0,13.25-9.93,21.44,4.55
			C584.95,898.21,600.53,918.38,600.53,918.38z"/>
		<path class="st5" d="M516.22,742.95c-5.41,12.31-18.03,21.13-27.28,20.96c-8.89-0.16-24.08-10.18-28.61-23.73l-0.04-0.12
			l-0.1-0.32c0,0,9.55,8.15,15.86,4.11h26.52C502.58,743.86,509.52,747.82,516.22,742.95z"/>
		<path class="st37" d="M647.63,920.27c0,0-3.24,11.3-19.05,31C610.28,951.01,647.63,920.27,647.63,920.27z"/>
		<path class="st3" d="M492.15,746.11h-5.72c-1.31,0-2.98-2.15-2.98-3.46c0,0,1.67-1.31,2.98-1.31h5.72c1.31,0,3.23,1.09,3.54,1.87
			C495.69,743.2,494.9,746.11,492.15,746.11z"/>
	</g>
	<path class="st48" d="M2690.44,1402.38H139.12c-1.85,0-3.36-1.51-3.36-3.36v-2.41c0-1.85,1.51-3.36,3.36-3.36h2551.32
		c1.85,0,3.36,1.51,3.36,3.36v2.41C2693.81,1400.87,2692.29,1402.38,2690.44,1402.38z"/>
</g>
</svg>
